<svg version="1.1" xmlns="http://www.w3.org/2000/svg" x="0px" y="0px"
	 viewBox="0 0 512 127">
<g>
	<path fill="#D05A3D" d="M364.3,91.2c-0.8-0.3-1.6-0.4-2.5-0.5c-0.8-0.1-1.5-0.1-2.3-0.1c-0.2,0-0.4,0-0.5,0c-0.3-0.6-0.6-1.3-0.8-2
		c-0.3-1.1-0.4-2.2-0.4-3.2c0-0.8,0-1.8,0.1-2.9c0.1-1.1,0.2-2.3,0.4-3.4c0.2-1.2,0.4-2.3,0.6-3.4c0.2-1,0.5-1.9,0.7-2.6l0.3-0.8
		l-0.4-0.8c-0.1-0.2-0.1-0.4-0.1-0.7c0-1,0.2-2,0.5-2.9c0.6-1.4,0.9-2.9,0.9-4.3c0-0.5,0-1,0-1.4c0-0.2,0-0.5,0-0.8l0-0.1
		c0.1-2,0.4-3.9,0.8-5.8c0.5-2.1,0.8-4.3,0.9-6.6c0.1-2.4,0.3-4.8,0.5-7.2c0.2-2.5,0.4-5,0.4-7.5c0-0.9,0-1.9,0-2.8
		c0-0.9,0-1.8,0-2.7c0-0.6,0-1.2,0.1-1.8c0.1-0.7,0.1-1.4,0.1-2.1c0-0.8-0.1-1.7-0.2-2.5c-0.1-0.7-0.3-1.3-0.6-2v-0.2
		c0-0.4,0-0.8-0.1-1.2l0.6-1.3l-1.4-1.1c-1.2-0.9-2.6-1.4-4.2-1.4c-2,0-3.7,0.5-5.2,1.5l-0.4,0.3l-0.2,0.4c-0.4,0.7-0.7,1.5-0.8,2.3
		c-0.1,0.6-0.1,1.1-0.1,1.7c0,1.3,0.1,2.5,0.3,3.7c0.2,1,0.2,2,0.2,3.1c0,2.1-0.1,4.3-0.3,6.3c-0.2,2.2-0.4,4.6-0.4,6.9
		c0,0.5,0,0.9,0.1,1.4c0,0.1,0,0.2,0,0.3l0,0.2c0,0.9-0.2,1.7-0.3,2.5c-0.2,1.1-0.4,2.1-0.4,3.2c0,0.4,0,0.8,0,1.2
		c0,0.3,0,0.5,0.1,0.7c-0.4,1.7-0.8,3.5-1,5.2c-0.2,1.9-0.4,3.7-0.6,5.6c-0.2,1.8-0.4,3.6-0.7,5.3c-0.2,0.9-0.4,1.8-0.6,2.6l-0.2,0
		l-0.6,0.4c-0.7,0.5-1.4,0.9-1.9,1.3c-0.1,0.1-0.4,0.2-1,0.3l-1.3,0.1l-0.5,1.2c-0.1,0.2-0.1,0.4-0.2,0.6c-1,0.5-2,1.1-2.9,1.8
		c-0.9,0.8-1.9,1.6-2.8,2.4c-0.9,0.7-1.8,1.4-2.7,2.1c-0.7,0.5-1.6,0.9-2.6,1.1l-1,0.2l-0.5,0.9c-0.1,0.2-0.2,0.3-0.4,0.4
		c-0.4,0.2-0.9,0.3-1.4,0.4l-0.8,0.1l-0.5,0.6c-0.2,0.2-0.3,0.4-0.5,0.6l-1.2-1.2l-1.4,2.7c-0.1,0.3-0.3,0.5-0.4,0.8
		c-1.1,0.4-2.1,0.9-3.1,1.5l-2.9,1.7c-0.9,0.6-1.8,1.1-2.8,1.6c-0.8,0.5-1.7,0.8-2.6,1.1l-0.5,0.2l-0.4,0.4c-0.3,0.3-0.6,0.6-1,1.1
		c-0.1,0.1-0.1,0.1-0.1,0.2l0,0c-0.1,0.1-0.3,0.1-0.5,0.2c-0.3,0.1-0.5,0.2-0.8,0.3c-0.8,0.2-1.6,0.5-2.4,0.6
		c-0.8,0.2-1.6,0.5-2.4,0.8c-0.8,0-1.5,0-2,0c-0.1,0-0.1,0-0.2,0c0.1-0.4,0.2-0.7,0.2-1.1l0.1-0.6l-0.2-0.5c-0.3-0.6-0.6-1.3-1-1.9
		c-0.1-0.2-0.2-0.4-0.2-0.6v-2.3h-2.2c-2,0-3.9,0.3-5.7,0.8c-0.6,0.2-1.3,0.4-1.9,0.6c-0.1-0.3-0.2-0.7-0.4-1.1
		c-0.2-0.9-0.4-1.8-0.6-2.7c-0.2-0.9-0.3-1.8-0.4-2.7c-0.1-0.9-0.1-1.7-0.1-2.3c0-1,0-1.9,0.1-2.9c0.1-0.8,0.3-1.7,0.6-2.5l0.2-0.6
		l-0.1-0.6c0-0.2-0.1-0.4-0.1-0.6c0-0.2,0-0.4,0-0.6c0-1.3,0.2-2.6,0.6-3.8c0.5-1.4,1-2.9,1.6-4.4l0.2-0.5l-0.1-0.5
		c-0.1-0.6,0-1.3,0.2-2.1c0.2-0.8,0.5-1.5,0.8-2l0.3-0.5v-1.1c0-1.4,0.2-2.9,0.6-4.2c0.4-1.6,0.9-3.2,1.2-4.7l0-0.1
		c0.1-0.6,0.2-1.2,0.3-1.7c0.1-0.5,0.2-1.1,0.3-1.6l0.1-1.2c0.2-0.2,0.4-0.5,0.5-0.7l0.4-0.7l-0.1-0.8c-0.1-0.5-0.1-0.9,0-1.4
		c0.1-0.6,0.2-1.3,0.4-1.9c0.2-0.7,0.3-1.4,0.4-2.1c0.2-0.8,0.2-1.6,0.2-2.5v-0.8c0-0.2,0-0.4,0-0.6c0.3-0.7,0.5-1.5,0.6-2.2
		c0.2-0.9,0.3-1.9,0.3-2.8l0.2-2.6c0.1-0.7,0.2-1.4,0.5-2l0.3-0.9l-0.5-0.9c-0.5-1-1.2-1.9-1.9-2.7c-0.3-0.3-0.6-0.9-0.7-1.5
		l-0.3-1.1l-1-0.4c-0.4-0.1-0.8-0.3-1.2-0.3c-0.4-0.1-0.8-0.1-1.2-0.1c-1.2,0-2.3,0.2-3.4,0.7c-0.9,0.4-1.7,0.8-2.5,1.3l-1.1,0.6
		l0,1.2c-0.1,2.8-0.2,5.7-0.4,8.5c-0.2,2.8-0.5,5.6-1,8.3c-0.2,0.9-0.3,1.8-0.5,2.7c-0.2,0.9-0.3,1.7-0.5,2.6
		c-0.1,0.3-0.2,0.7-0.4,1.1c-0.2,0.7-0.3,1.3-0.3,1.8c0,0.6,0.1,1.1,0.3,1.6c0,0,0,0,0,0c0,0.1,0,0.2-0.1,0.5
		c-0.1,0.4-0.3,0.8-0.4,1.3c-0.2,0.5-0.3,0.9-0.5,1.3c-0.2,0.4-0.2,0.5-0.2,0.5c0,0,0,0,0,0l-0.4,0.6l0.1,0.7c0,0.5,0,1.1-0.1,1.7
		c-0.1,0.7-0.3,1.4-0.4,2.1c-0.2,0.8-0.4,1.5-0.5,2.3c-0.2,0.8-0.3,1.5-0.3,2.3c-0.3,0.4-0.6,0.9-0.7,1.5l-1,0.5v1.3
		c0,0.9-0.1,1.8-0.4,2.6c-0.4,1.3-0.7,2.5-0.7,3.7c0,0.3,0.1,0.7,0.1,0.9c-0.2,0.5-0.4,1-0.5,1.5c-0.1,0.6-0.3,1.2-0.6,1.7l-0.2,0.5
		v0.5c0,1.5-0.1,3.1-0.2,4.5c-0.2,1.6-0.2,3.3-0.2,5c0,1.4,0.1,2.7,0.3,4c0,0.2,0.1,0.4,0.1,0.5c-0.4-0.1-0.7-0.2-1-0.3
		c-1.3-0.6-2.6-0.8-4-0.8h0c-0.1-0.1-0.2-0.1-0.3-0.2v-2l-2.7,0.9h-0.4c-0.7,0-1.4-0.1-2.1-0.3c-0.6-0.2-1.1-0.5-1.5-0.8l-0.4-0.4
		l-0.5-0.1c-1.5-0.4-3-0.9-4.6-1.4c-1.3-0.4-2.5-1.1-3.5-1.9l-0.6-0.5h-2c-1.2-0.7-2.4-1.3-3.7-1.8c-1.4-0.5-2.9-1-4.3-1.5
		c-1.4-0.4-2.7-0.9-4-1.5c-1.1-0.5-2.1-1.1-3-1.9l-0.9-0.8l-1.2,0.3c0,0-0.1,0-0.3,0c-0.1,0-0.2,0-0.2-0.1c0.3-0.2,0.6-0.3,1-0.4
		c1.2-0.5,2.3-1.2,3.2-2.1c2.1-0.7,4.2-1.7,6-2.8c1.8-1.1,3.6-2.1,5.6-2.9l0.6-0.2l0.4-0.5c0.5-0.7,1-1.2,1.7-1.6
		c1-0.5,1.9-1.2,2.8-1.8l0.1,0c0.4-0.3,1-0.7,1.7-1.2c0.2-0.1,0.3-0.2,0.4-0.3l2.7,1.3v-3.5c0,0,0-0.1,0-0.1c0,0,0.1-0.1,0.1-0.1
		l1.1-0.6c0.3-0.2,0.6-0.4,0.8-0.6h1.7l0.6-1.1c0.2-0.4,0.4-0.8,0.6-1.2c1.1-0.6,2.1-1.2,3-2.1c1-1,2-2.1,2.8-3.2
		c0.8-1.1,1.5-2.2,2.3-3.3c0.6-1,1.4-1.9,2.2-2.7l0.5-0.5l0.1-0.8c0.1-0.7,0.2-1.3,0.5-1.7c0.4-0.6,0.8-1.3,1.3-2.1l0.4-0.6
		l-0.1-0.8c0-0.4,0-0.9,0.2-1.3c0.3-0.9,0.5-1.9,0.5-2.8c0-1.1-0.3-2.2-0.9-3c-0.1-0.1-0.1-0.2-0.1-0.3c0-0.2,0.1-0.4,0.1-0.6v-1.2
		l-1-0.6c-0.1,0-0.2-0.1-0.3-0.3c-0.2-0.3-0.3-0.7-0.5-1l-0.2-0.6l-0.5-0.4c-1.8-1.3-3.7-2.5-5.7-3.4c-2-1-4.2-1.7-6.4-2.3
		c-2.2-0.6-4.4-1-6.6-1.3c-2.2-0.3-4.4-0.4-6.5-0.4c-0.9,0-1.8,0-2.8,0.1c-0.7,0-1.4,0.1-2.1,0.2c-0.6-0.3-1.3-0.4-2-0.4
		c-0.7,0-1.5,0.2-2.1,0.5c-3.1,0-6.2,0.3-9.2,0.7c-3.1,0.5-6.3,1-9.5,1.6l-0.5,0.1l-0.4,0.3c-0.2,0.1-0.3,0.3-0.4,0.4
		c-0.2,0-0.3,0-0.5,0c-1.2,0-2.3,0.3-3.4,0.8c-0.5,0.2-0.9,0.3-1.5,0.3c0,0,0,0,0,0l-2.3-1.8l-0.9,2.9c-0.3,0.1-0.6,0.2-1,0.3
		c-0.6,0.1-1.2,0.3-1.8,0.5c-0.5,0.2-0.9,0.4-1.2,0.6c-0.3-0.1-0.6-0.1-0.9-0.1h-0.6l-0.5,0.3c-1.6,1-3.3,1.8-5.1,2.3
		c-1.9,0.6-3.7,1.4-5.4,2.3c-0.6,0-1.2,0.1-1.7,0.3c-0.5,0.2-1,0.4-1.4,0.6c-0.3,0.2-0.7,0.3-1,0.4c-0.2,0.1-0.4,0.1-0.6,0.1
		c0,0-0.1,0-0.1,0l-0.8-0.3l-0.9,0.5c-0.8,0.5-1.7,1-2.6,1.4l-0.2-0.1c-0.1-0.1-0.2-0.2-0.3-0.4c-0.2-0.6-0.4-1.2-0.5-1.9
		c-0.2-0.8-0.4-1.6-0.6-2.4c-0.1-0.4-0.3-0.8-0.5-1.2c0.1-0.4,0.2-0.8,0.2-1.2v-1l-0.6-0.6c-0.4-0.4-0.7-0.9-0.9-1.4
		c-0.2-0.4-0.3-0.7-0.3-1.1c0-0.2,0-0.3,0-0.3l0.4-1.5l-1.4-0.8c-0.3-0.2-0.6-0.5-0.8-0.9c-0.3-0.6-0.6-1.3-0.8-1.9l-0.5-1.4
		l-1.5-0.1c0-0.1-0.1-0.2-0.1-0.5l-0.4-2.1l-2,0.4c-0.1-0.2-0.3-0.5-0.4-0.8c-0.4-0.7-0.8-1.3-1.5-1.7l-0.5-0.4h-0.6
		c-0.2-0.1-0.5-0.1-0.8-0.1c-1,0-1.9,0.2-2.6,0.7c-0.1,0.1-0.4,0.3-0.9,0.4l-0.8,0.3l-0.4,0.7c-0.1,0.2-0.2,0.5-0.4,0.7l-1,1.5
		l0,0.7c0.2,2.3,0.3,4.6,0.5,6.9c0.2,2.2,0.2,4.5,0.2,6.7c0,2.6-0.2,5.3-0.5,8.1c0,0.5-0.1,1.1-0.3,1.8c-0.2,0.9-0.2,1.6-0.2,2.2
		c0,0.6,0.2,1.1,0.5,1.5c-0.3,2-0.6,4-1,6c-0.5,2.3-0.7,4.6-0.8,6.9c-0.1,0.1-0.1,0.3-0.1,0.4l-1.2,0.5l0.6,1.9
		c0.1,0.3,0.2,0.8,0.1,1.3l0,0.2c-0.5,0.9-0.8,1.9-1,2.9c-0.2,1-0.4,2.1-0.5,3.2c-0.1,1-0.3,2-0.5,2.9c-0.2,0.6-0.4,1.2-0.7,1.6
		l-0.5,0.6v0.8c0,0.5,0,1.2-0.1,1.8c-0.1,0.7-0.2,1.3-0.3,2c-0.1,0.6-0.4,1.3-0.6,1.8c-0.3,0.6-0.5,1.1-0.8,1.5l-0.3,0.4l-0.1,0.5
		c-0.4,2.3-1.1,4.7-1.9,7c-0.7,2-1.5,3.9-2.4,5.9c-0.2,0-0.4,0-0.6,0c-0.9,0-1.7-0.1-2.6-0.2c-1-0.1-2.1-0.2-3.2-0.2
		c-0.2,0-0.5,0-0.7,0c-0.1-0.7-0.2-1.5-0.2-2.2c-0.1-1.5-0.5-2.9-1.3-4.2l-1-1.7l-1.7,0.9c-0.1,0-0.3,0-0.5,0c-0.7,0-1.5,0-2.2-0.1
		l-4.3-0.5l-0.5,1.8c-0.1,0.4-0.3,0.8-0.4,1.1c-0.1,0.1-0.1,0.2-0.2,0.3c-0.1,0-0.3,0.1-0.4,0.1l-0.6-0.6l-1.5,1.7
		c-1.1,1.3-2.4,2.4-3.7,3.3c-1.4,1-3,2.1-4.5,3.2l-0.1,0c-0.5,0.4-1,0.7-1.4,1.1c-0.5,0.4-1.1,0.9-1.5,1.3l-0.7,0.6l-1.8-0.9
		l-0.7,2.6c-0.1,0.3-0.2,0.5-0.3,0.6c-0.6,0.5-1.1,1-1.5,1.7c-0.4,0.2-0.8,0.3-1.1,0.6c-0.6,0.4-1.1,0.9-1.6,1.5
		c-0.4,0.5-0.7,1-1,1.6c0,0.1-0.1,0.1-0.1,0.2h-1.1l-0.6,0.4c-1.5,1-2.8,2.2-4.1,3.5c-1.1,1.2-2.3,2.3-3.4,3.3
		c-1.1,0.9-2.3,1.7-3.6,2.4c-1.1,0.6-2.4,0.8-3.9,0.8c0,0-0.1,0-0.1,0c-0.4-0.8-0.9-1.6-1.5-2.3c-0.5-0.6-0.9-1.2-1-2l0-0.1
		c-0.2-0.7-0.4-1.6-0.5-2.4c-0.1-1-0.2-1.9-0.3-2.9c-0.1-1-0.2-2-0.4-2.9c-0.1-0.8-0.3-1.6-0.6-2.4c0.6-2.2,0.9-4.5,1.1-7.1
		c0.2-2.5,0.4-5.2,0.7-8c0.2-2.6,0.6-5.1,1.1-7.5c0.4-1.9,1.1-3.6,2-5.2c0.6-0.2,1.1-0.5,1.7-0.8l1.7-1.1c0.5-0.3,1-0.6,1.5-0.9
		c0.3-0.1,0.6-0.2,1-0.2c0.1,0,0.2,0,0.6,0.1l1.6,0.4l0.8-1.4c0.1-0.1,0.2-0.4,1-0.6c0.9-0.2,1.6-0.4,2.3-0.4h0.4l1.7,0.6l0.8-1.7
		c0,0,0-0.1,0-0.1c0.4-0.2,0.8-0.3,1.2-0.4c0.7-0.2,1.3-0.4,1.9-0.6c0.5-0.2,0.9-0.4,1.2-0.8c1.4,0,2.6-0.3,3.8-1
		c0.5-0.3,1-0.4,1.5-0.4l2.1,1l0.9-2c0.1-0.1,0.2-0.1,0.4-0.1l1.2-0.4l0.1,0c0.4-0.2,0.8-0.3,1.1-0.6c1.7-0.2,3.4-0.6,5-1.2
		c1.7-0.6,3.4-1.3,5.1-1.9c1.6-0.6,3.2-1.2,4.8-1.7c1.5-0.5,3-0.7,4.6-0.7l1.9,0l0.3-1.6c0.1-0.1,0.2-0.2,0.3-0.3
		c0.4-0.3,0.7-0.6,1-0.9c0.4-0.5,0.8-1.1,0.9-1.9l0.2-0.9l-0.5-0.8c-0.2-0.4-0.4-0.8-0.6-1.3c-0.3-0.7-0.6-1.4-1-2
		c-0.4-0.7-1-1.4-1.6-1.9c-0.8-0.6-1.8-1-3-1.1l-0.9-0.1l-0.7,0.6c-0.2,0.2-0.5,0.3-0.8,0.4c-0.5,0.2-1,0.3-1.5,0.4
		c-0.7,0.1-1.4,0.3-2,0.4c-0.6,0.2-1.2,0.4-1.7,0.7c-0.2,0-0.5,0-0.7,0c-0.7,0-1.3,0.1-1.9,0.3c-0.4,0.1-0.7,0.3-1.1,0.6
		c-1,0-2.1,0.2-3.2,0.6c-1,0.3-1.8,0.7-2.6,1.1c-0.3,0-0.6-0.1-0.9-0.1c-1,0-2,0.3-2.9,0.8c-0.5,0.3-1,0.6-1.5,1
		c-1.6,0.3-3.2,0.7-4.8,1.1c-1.4,0.5-2.8,1-4.2,1.5c-0.2-0.2-0.4-0.3-0.7-0.5c-0.7-0.5-1.3-1-1.9-1.6l-1-1.1l-1.4,0.6
		c-0.2,0.1-0.7,0.3-1.3,0.5c-0.3,0.1-0.5,0.2-0.6,0.2c0,0-0.1,0-0.1,0c-0.3,0-0.6-0.1-1-0.1c-1.1,0-2.2,0.1-3.3,0.4
		c-0.7,0.2-1.4,0.2-2.1,0.3v-2.9c0.9-2,1.5-4.1,1.9-6.3c0.3-1.8,0.7-3.5,1.1-5.3c2.1-1.2,4.4-2.3,6.7-3.2c2.7-1,5.4-2.1,8-3.2
		c1.4-0.6,2.7-1.2,4-1.8c1-0.5,2-1,3-1.5c0.3,0.1,0.6,0.1,0.9,0.1h1.3l0.6-0.9c0-0.1,0.1-0.1,0.2-0.2c0.4-0.2,0.7-0.3,1.1-0.5
		c0.5-0.2,1-0.4,1.5-0.6c0.4-0.2,0.8-0.4,1.1-0.7c1.1-0.2,2.2-0.5,3.3-1c1.1-0.5,2.1-1,3.2-1.5c1-0.5,2-1,3-1.4
		c0.8-0.4,1.7-0.6,2.6-0.7l1-0.1l0.6-0.8c0.2-0.2,0.4-0.4,0.7-0.6c0.6-0.2,1.2-0.5,1.9-0.6c0.8-0.2,1.6-0.5,2.4-0.7
		c0.8-0.3,1.4-0.7,2-1.1c0.7-0.1,1.3-0.3,1.9-0.5c0.7-0.3,1.4-0.6,2.1-0.9c0.6-0.3,1.1-0.5,1.7-0.8c0.3-0.1,0.6-0.2,1-0.3
		c0.4,0.2,0.8,0.3,1.3,0.3c0.5,0.1,0.9,0.1,1.3,0.2l4,0.5l-0.9-1.7c0.7-0.2,1.4-0.6,1.8-1.3l0.2-0.4l0.1-0.5
		c0.1-0.5,0.1-0.9,0.1-1.5c0-0.5,0-1,0-1.5c0-0.3,0-0.7,0-1c0-0.4-0.1-0.7-0.1-1.1l-0.4-1.9l-1.7,0.1c-0.2-0.5-0.4-0.9-0.7-1.3
		l-0.6-1.1h-1.3c-0.4,0-0.8,0-1.2-0.1c-0.6-0.1-1.2-0.3-1.8-0.4l-0.9-0.2l-0.7,0.5c-1.3,1-2.8,1.8-4.2,2.3c-1.4,0.6-3,1-4.7,1.1
		l-1.9,0.2v1c-0.6,0.1-1.2,0.4-1.7,0.8c-0.2,0-0.4-0.1-0.7-0.1c-0.8,0-1.5,0.2-2.3,0.5c-0.5,0.2-1,0.5-1.6,0.8
		c-0.4,0.2-0.8,0.4-1.2,0.6c-0.2,0.1-0.4,0.1-0.6,0.1c-0.2,0-0.3,0-0.3,0l-1.3-0.3l-0.9,1.1c-0.1,0.1-0.2,0.2-0.3,0.4
		c-0.2,0.1-0.5,0.2-0.7,0.3c-1.3,0.6-2.6,1.2-3.7,1.7c-1.1,0.5-2.4,0.9-3.9,1.3l-2.1,0.5l0.1,0.5c-0.5,0.1-1,0.2-1.4,0.4
		c-0.6,0.2-1.2,0.5-1.7,0.7c-0.4,0.2-0.9,0.4-1.3,0.6c-0.2,0.1-0.4,0.1-0.7,0.1l-1.2-0.6l-1.1,0.8c-0.5,0.4-1,0.6-1.5,0.8
		c-0.7,0.3-1.4,0.5-2,0.8c-0.8,0.3-1.5,0.6-2.2,0.9c-0.5,0.2-1,0.5-1.5,0.8c-0.2-0.1-0.5-0.1-0.8-0.1h-1.7l-0.5,1.4
		c-0.1,0.3-0.2,0.5-0.5,0.6c-0.1,0-0.1,0.1-0.2,0.1c0-0.2,0-0.5-0.1-0.7c-0.1-0.4-0.1-0.9-0.2-1.4c0.6-0.4,1.2-1.2,1.5-2.5l0.1-0.7
		l-0.3-0.6c-0.4-0.8-0.8-1.6-1.1-2.4c-0.5-0.9-1-1.8-1.6-2.5c-0.7-0.8-1.5-1.5-2.4-2c-1-0.6-2.2-0.9-3.6-0.9c-1,0-1.8,0.1-2.4,0.4
		c-0.6,0.2-1.1,0.6-1.5,0.9c-0.2,0.2-0.5,0.4-0.7,0.7c0,0-0.1,0.1-0.5,0.3l-1.6,0.7l0.3,1.7c0.1,0.5,0.2,1.1,0.3,1.6
		c0.1,0.5,0.1,1,0.1,1.5c0,0.4,0,0.8-0.1,1.1c-0.1,0.2-0.2,0.4-0.3,0.7l-0.7,0.9l0.4,1.1c0,0.1,0.1,0.3,0.1,0.4c0,0.3,0,0.5,0,0.8
		c0,1.3-0.2,2.6-0.5,3.9c-0.3,1.1-0.5,2.2-0.7,3.3c-0.5,0.2-1,0.4-1.5,0.7c-0.8,0.5-1.6,1-2.4,1.6c-0.7,0.5-1.4,1.1-2,1.6
		c-0.5,0.4-1.1,0.7-1.7,0.9l-0.9,0.3l-0.4,0.9C81.2,34,81,35.2,81,36.5c0,2.3,1.1,4.4,3.1,6l0.6,0.5h0.9c1.2,0,2.5-0.2,3.7-0.6
		c0.1,0,0.1,0,0.2,0c-0.2,1-0.3,2.1-0.4,3.1l-0.6,5.8c-0.1,0.9-0.2,1.8-0.3,2.6c-1.9,0.5-3.8,1-5.7,1.4c-2.4,0.5-4.9,1-7.2,1.6
		c-2.3,0.6-4.7,1.2-7,1.7c-1.4,0.3-3,0.7-4.8,1c-1.9,0.3-3.5,0.9-4.9,1.8c-1.9,0.2-3.7,0.6-5.4,1.2c-1.7,0.6-3.4,1.1-5.2,1.5l-0.1,0
		c-1.8,0.5-3.7,1.1-5.6,1.5c-1.9,0.5-3.9,1-5.8,1.6c-1.9,0.6-3.9,1.2-5.9,1.7c-1.8,0.5-3.7,0.7-5.6,0.7c-0.5,0-1,0-1.5-0.1
		c-0.5,0-1-0.1-1.5-0.2l-0.6-0.1l-0.5,0.2c-0.6,0.2-1.3,0.4-2,0.6c-0.1,0-0.1,0-0.2,0c0.2-0.3,0.3-0.7,0.5-1l0.2-0.4l0-0.4
		c0-1,0.2-1.9,0.5-2.6c0.3-0.8,0.8-1.8,1.3-2.8l0.1-0.2c0.1-0.2,0.2-0.4,0.3-0.7c0.2-0.4,0.4-0.8,0.5-1.2l0-0.2c0.3-1,0.5-2,0.8-2.9
		c0.2-0.8,0.5-1.7,0.9-2.5c0.8-1.9,1.8-3.8,2.9-5.6c1.2-1.9,2.4-3.9,3.5-5.8l2.1-3.5l0.1-0.2c0.1-0.2,0.2-0.4,0.2-0.5
		c0.1-0.1,0.2-0.3,0.3-0.5c0.1-0.1,0.3-0.4,1.2-1.2c0.8-0.7,1.6-1.6,2.6-2.4c0.9-0.9,1.9-1.7,2.8-2.5c0.6-0.5,1-0.9,1.4-1.2
		c1-0.1,2-0.4,2.9-0.9c0.9-0.5,1.8-1.1,2.6-1.8c0.7-0.6,1.5-1.2,2.2-1.8c0.6-0.5,1.2-0.8,1.9-1l0.8-0.3l0.4-0.8
		c0.4-0.9,0.8-1.7,1.2-2.6c0.3-0.6,0.6-1.2,1.1-1.8l0.6-0.8l-0.2-1c-0.6-3.3-2.1-6.1-4.6-8.4L48.8,10H48c-0.1,0-0.2,0-0.4,0
		c-0.3,0-0.6-0.1-0.9-0.1c-1.4,0-2.5,0.2-3.5,0.6c-0.9,0.4-1.7,0.8-2.5,1.4c-0.7,0.5-1.4,1.1-2,1.7c-0.4,0.4-0.9,0.9-1.5,1.3
		c-1,0.3-1.8,0.8-2.5,1.4c-0.4,0.4-0.8,0.8-1.4,1.1c-0.1,0-0.1,0.1-0.3,0.2c-0.4,0.2-0.8,0.4-1,0.7c-0.6,0.6-0.9,1.4-0.9,2.3
		c0,0-0.1,0-0.1,0c-0.5,0.3-1,0.7-1.5,1.1l-0.1,0.1c-0.6,0.7-1.2,1.4-1.7,2.2c-0.4,0.6-0.8,1.2-1.3,1.8L25,27.6l-0.1,0.1
		c-0.5,0.6-0.8,1.4-0.8,2.3c0,0,0,0.1,0,0.1c-0.9,0.7-1.7,1.6-2.3,2.5c-0.6,1-1.2,2.1-1.7,3.2c-0.4,1-0.9,2-1.4,2.9
		c-0.4,0.8-0.9,1.5-1.6,2.1l-0.6,0.6l-0.1,0.8c-0.1,0.9-0.3,1.7-0.7,2.4c-0.6,1.1-0.9,2.3-1,3.5c-0.6,1-1.1,1.9-1.6,2.8
		c-0.6,1.1-1.1,2.3-1.4,3.7c-1.1,1.7-2.2,3.5-3,5.4c-0.9,1.9-1.7,3.9-2.4,5.9c-0.7,1.9-1.4,3.9-2.1,5.9c-0.7,1.9-1.4,3.7-2.3,5.5
		l-0.2,0.5v0.5c0,1.8-0.3,3.6-0.8,5.4C0.3,85.8,0,88,0,90.3c0,4.8,1,9.5,3,14c2,4.5,4.7,8.5,8,11.8l0.5,0.5l0.7,0.1
		c0.6,0.1,1.2,0.2,1.7,0.4c0.7,0.3,1.3,0.5,1.9,0.8c0.7,0.3,1.4,0.5,2.2,0.8c0.9,0.3,1.9,0.4,3,0.4c0.7,0,1.4,0,2.1-0.1
		c0.6,0,1.2-0.1,1.7-0.1c0.9,0,1.6,0.1,2.2,0.2l0.6,0.2l0.6-0.2c1.2-0.4,2.2-0.8,3.1-1.3c0.1-0.1,0.6-0.3,1.6-0.3h1.1l0.5-0.2
		c2.5-1.3,4.9-2.8,7.2-4.5c2.3-1.7,4.5-3.4,6.6-5.3c2.1-1.8,4.2-3.7,6.2-5.7c2-1.9,3.9-3.8,5.9-5.8l0.4-0.4l0.1-0.6
		c0.3-1,0.6-1.9,1.1-2.8c0.5-0.9,1.2-1.8,1.9-2.7l0.6-0.7L64.6,88c0-0.3,0-0.5,0.1-0.7c0.2-0.6,0.3-1.3,0.3-1.9c0.7-0.7,1-1.5,1-2.5
		c0-0.4,0.1-0.9,0.2-1.3l0.3-0.3c0.3-0.3,0.5-0.6,0.7-0.9c0.3-0.6,0.5-1.2,0.5-1.9v-1.2l-1-0.6c0,0-0.1,0-0.1-0.2
		c-0.2-0.5-0.3-1-0.4-1.6c-0.1-0.6-0.2-1.3-0.3-2c0,0,0,0,0,0c0.9-0.3,1.8-0.7,2.6-1.1c1.2-0.5,2.4-0.8,3.8-0.8c0.2,0,0.5,0,0.7,0
		c0.2,0,0.4,0,0.6,0.1l1.7,0.3l0.7-1.5c0.1-0.2,0.3-0.4,0.5-0.5c0.6-0.2,1.3-0.4,2.1-0.5c0.6-0.1,1.2-0.1,1.9-0.2
		c0.1,0.3,0.1,0.7,0.2,1.1c0.2,0.8,0.5,1.5,1,2.1c0.6,0.8,1.5,1.4,2.8,1.7c0.1,0,0.1,0,0.2,0c-0.3,1.9-0.6,3.7-0.8,5.5
		c-0.3,2.2-0.6,4.5-0.9,6.8c0,0.2-0.1,0.5-0.2,1.2c-0.1,0.6-0.2,1.1-0.3,1.7c-0.1,0.6-0.2,1.2-0.3,1.8c-0.1,0.8-0.1,1-0.1,1.2
		c0,0.4,0.1,0.9,0.2,1.2c-0.5,0.8-0.8,1.7-0.8,2.8c0,0.7,0.1,1.4,0.3,2.1c0,0.1,0.1,0.2,0.1,0.3l-1,0.5l0.4,1.6
		c0.3,1.2,0.5,2.4,0.7,3.6c0.2,1.2,0.4,2.4,0.6,3.5l0,0.1c0.1,0.5,0.1,1,0.2,1.5c0,0.8,0.1,1.5,0.2,2.1l0.1,0.3
		c0.1,0.4,0.3,0.7,0.5,1c0,0.2,0,0.4,0,0.6c0,1.3,0.3,2.7,0.9,4.1c0.5,1,0.8,2,1.1,3l0.2,0.5l0.4,0.4c0.5,0.5,1.1,1.1,1.7,1.7
		c0.7,0.6,1.4,1.2,2.2,1.8c0.8,0.6,1.7,1.1,2.6,1.4c1,0.4,2.1,0.6,3.2,0.6c1.4,0,2.7-0.2,4.1-0.5c1.1-0.3,2.2-0.6,3.3-0.8l0.8-0.2
		l0.5-0.6c0.1-0.2,0.3-0.4,0.4-0.5h1.4l0.6-1.2c0.1-0.2,0.2-0.3,0.4-0.4c0.5-0.3,1.1-0.5,1.6-0.6l0.6-0.2l0.4-0.4c0.9-1,1.9-2,3-2.9
		c1.1-0.9,2.2-1.9,3.4-2.8c1.2-0.9,2.3-1.9,3.4-2.8c0.9-0.8,1.8-1.6,2.6-2.5c0.1,0,0.2,0,0.3-0.1l0.5,0.5l1.5-1.8
		c0.9-1,1.8-2,2.7-2.9c0.7-0.7,1.5-1.2,2.6-1.5l1-0.3l0.3-1c0-0.1,0.1-0.1,0.1-0.2c0.1-0.1,0.2-0.3,0.3-0.4c0.7-0.4,1.5-0.8,2.3-1.2
		c0.9-0.4,1.9-0.9,2.8-1.3l0.8-0.3l0.4-0.8c0.2-0.4,0.4-0.7,0.7-0.9c0.4-0.3,0.8-0.6,1.3-0.9c0.4-0.2,0.8-0.4,1.2-0.6
		c0,1,0.3,1.9,0.7,2.7c0.1,0.2,0.2,0.4,0.2,0.7c0,0.2-0.1,0.5-0.1,0.7v1.5l1.5,0.5c1.4,0.5,2.8,0.8,4.4,0.9c0.2,0,0.4,0,0.7,0
		l-0.3,0.2l-0.1,1.1c0,0.8-0.2,1.6-0.5,2.3c-0.3,0.6-0.7,1.1-1.4,1.6l-0.7,0.5l-0.2,0.8c-0.2,1-0.5,1.8-0.9,2.4
		c-0.5,0.9-1.1,1.9-1.7,3.1l-0.3,0.7l0.1,0.7c0.2,0.9,0.4,1.7,0.7,2.6c0.3,1,0.8,1.9,1.3,2.6c0.6,0.8,1.4,1.5,2.4,2
		c1,0.5,2.1,0.8,3.4,0.8c1.4,0,2.6-0.3,3.5-0.9c0.8-0.6,1.5-1.3,2-2.2c0.4-0.7,0.7-1.6,0.9-2.5c0.1-0.6,0.3-1.2,0.5-1.9
		c0.2-0.6,0.5-1.1,0.9-1.8c0.8-1.1,1.1-2.3,1.1-3.5c0-0.2,0-0.4,0-0.6c0.3-0.5,0.6-1,0.8-1.6c0.3-0.8,0.5-1.5,0.8-2.3
		c0.2-0.7,0.4-1.3,0.7-1.9c0.1-0.3,0.3-0.5,0.6-0.7l1-0.8l-0.2-1.3c0-0.1,0-0.1,0-0.2c1.6-0.7,3.4-1.1,5.4-1.3
		c2.4-0.2,4.7-0.5,6.8-0.9c0.8-0.1,1.7-0.3,2.6-0.6c0.2-0.1,0.3-0.1,0.5-0.2c0,0,0,0,0,0c0.6,0.2,1.2,0.4,1.8,0.4
		c0.2,0,0.5,0,0.7-0.1h0.3l0.4-0.2c0.3-0.1,0.7-0.3,1-0.5c0.2-0.1,0.4-0.2,0.6-0.3c2.1-0.8,4.2-1.2,6.4-1.2c0.5,0,0.9,0,1.3,0
		c0,0,0,0,0.1,0c0.2,0.3,0.4,0.6,0.6,0.8c0.3,0.3,0.6,0.7,0.9,1c0.2,0.2,0.3,0.4,0.4,0.7c0,0.1,0.1,0.4,0.1,0.8v1.8l1.4,0.2
		l-0.2,2.8l1.9-0.3c0.3,0.5,0.6,1,0.9,1.5c0.5,0.6,0.9,1.1,1.4,1.6c0.4,0.5,0.9,0.9,1.3,1.4c0.3,0.3,0.6,0.7,0.8,1.2l0.4,0.8
		l0.9,0.3c1,0.3,1.9,0.7,2.8,1.3c1.4,0.9,2.9,1.3,4.5,1.3c0.4,0,0.8,0,1.1-0.1c0.3,0.1,0.6,0.2,1,0.3c0.3,0,0.4,0.1,0.4,0.1l0.7,0.3
		l0.7-0.2c0.5-0.1,0.9-0.3,1.3-0.3c0.3-0.1,0.7-0.1,1.1-0.1h0.5l0.5,0.4h0.7c0.7,0,1.2-0.2,1.7-0.5l0.6,1.2l2-1.6
		c0.4-0.3,0.8-0.6,1.2-0.8c0.5-0.3,1.1-0.6,1.6-0.9l0.8-0.5l0.2-0.9c0.1-0.6,0.2-1.2,0.2-1.9v-1.3c0-0.6,0-1.2,0-1.7
		c0-0.4-0.1-0.8-0.1-1.3c0.1-0.3,0.2-0.7,0.2-1c0.1-0.4,0.2-0.8,0.3-1.2l0.2-0.8l-0.3-0.7c0-0.1-0.2-0.4-0.2-1.1v-1.3
		c0-0.4,0-0.8-0.1-1.1c0.3-1.1,0.5-2.4,0.6-3.7c0.1-1.4,0.2-2.8,0.3-4.1c0.1-1.3,0.2-2.6,0.3-3.8c0-0.4,0.1-0.8,0.2-1.1
		c0.6,0.1,1.3,0.1,1.9,0.1c0.3,0.2,0.5,0.3,0.8,0.5c0.3,0.2,0.5,0.4,0.8,0.6l2.7,2.7l0.5-2c0.7,0.4,1.5,0.7,2.2,1l3.2,1.2l0.1,0
		c1,0.3,2.1,0.7,3.1,1.1c1,0.4,1.9,0.8,2.8,1.3l0.6,0.3l0.7,0c0.3,0,0.6,0,0.9,0.2c0.6,0.4,1.2,0.7,1.6,1c0.7,0.5,1.6,0.9,2.5,1.2
		c0.8,0.2,1.5,0.4,2.3,0.6c0.7,0.2,1.4,0.4,2.1,0.6c0.5,0.2,0.9,0.4,1.2,0.7l0.6,0.5h1.2c0.6,0,1.3,0.1,2,0.4
		c0.9,0.3,1.7,0.6,2.5,0.9c0.8,0.3,1.6,0.7,2.2,1c1,0.5,1.8,0.7,2.5,0.7h3c0.6,0.5,1.2,0.8,1.9,1c0.7,0.2,1.4,0.3,2.2,0.4
		c0.5,0,1,0.1,1.4,0.2c0.3,0,0.5,0.2,0.8,0.3l0.6,0.4l0.8-0.1c1.3-0.1,2.6,0,3.9,0.1c0,0,0,0,0,0c0.3,0.3,0.5,0.7,0.8,1l0.5,0.7
		l0.9,0.2c0,0,0.1,0,0.1,0c0.6,0.8,1.2,1.4,1.8,1.7c0.7,0.4,1.6,0.7,2.5,0.9c0.1,0.1,0.1,0.1,0.2,0.2v0.6l1.6,0.4
		c2.2,0.6,4.5,0.8,6.8,0.8c1.8,0,3.7-0.1,5.5-0.4c1.8-0.3,3.6-0.6,5.3-1l0.1,0c0.3-0.1,0.5-0.1,0.8-0.2c0.5-0.1,0.9-0.2,1.3-0.4
		c1.3-0.5,2.6-1.2,3.9-2c2-1.2,3.9-2.5,5.8-3.7c1.7-1.1,3.5-2.1,5.6-2.8l0.5-0.2l0.4-0.4c0.5-0.5,0.9-1,1.3-1.5
		c0-0.1,0.1-0.1,0.1-0.2c0.8-0.1,1.5-0.3,2.2-0.7c0.7-0.4,1.4-1,2-1.6c0.5-0.5,1-1.1,1.4-1.6c0.3-0.4,0.5-0.5,0.5-0.5l0.1-0.1
		c0,0,0.1-0.1,0.2-0.1c0.2-0.1,0.4-0.2,0.7-0.3c0.6-0.3,1.2-0.6,1.7-0.9c0.5-0.3,1.1-0.6,1.6-0.9c2-1.3,3.9-2.7,5.6-4.4
		c0.5-0.5,1-1,1.5-1.5c0,0.3,0,0.7,0,1c0,1,0.1,2.3,0.2,3.7c0.1,1.4,0.4,2.8,0.7,4.2c0.3,1.5,0.7,2.9,1.3,4.2
		c0.6,1.4,1.3,2.6,2.2,3.5c0.8,0.9,2,1.4,3.4,1.4c0.9,0,1.3,0.2,1.6,0.3l0.2,0.1c0.2,0,0.3,0.1,0.5,0.3c0.7,0.5,1.4,0.8,2.2,0.9
		l1.1,0.1l0.7-0.7c0,0,0,0,0,0l0,0c0.6-0.2,1.1-0.3,1.6-0.4c0.9-0.1,1.8-0.4,2.8-0.9l0.5-0.3l0.3-0.5c0.4-0.6,0.8-1.1,1.3-1.7
		c0.9-1.1,1.4-2.3,1.4-3.6v-0.2c0-0.4-0.1-0.9-0.3-1.3C366.4,92.4,365.5,91.6,364.3,91.2z M236,27.1c0.7,0,1.4,0,1.9-0.1l4-0.3
		c1.9-0.1,3.9-0.2,5.8-0.1c0.6,0,1.3,0.1,2,0.2c0.3,0,0.5,0.1,0.8,0.2c0.4,0.1,0.8,0.2,1.1,0.2l0.2,0h1.9c0.5,0,1.1,0.1,1.6,0.2
		c0.6,0.1,1.3,0.3,1.9,0.4c1.2,0.3,2.5,0.7,3.7,1.2c1.1,0.5,2.3,0.9,3.5,1.3c0.3,0.4,0.7,0.7,1.1,0.9c0.3,0.2,0.7,0.5,1,0.7
		c0.2,0.1,0.3,0.3,0.4,0.4c0,0,0,0.1,0,0.3c0,0.5-0.1,0.9-0.3,1.4c-0.3,0.7-0.7,1.3-1.1,2c-0.4,0.7-0.9,1.4-1.4,2
		c-0.5,0.7-0.9,1.4-1.2,2.2c-2.2,2-4.5,3.9-6.8,5.6c-2.5,1.8-5,3.8-7.4,5.9c-0.4,0.2-0.8,0.4-1.1,0.6h-1.1l-0.6,0.9
		c-0.2,0.3-0.5,0.6-0.9,0.8c-0.6,0.4-1.2,0.9-1.7,1.4c-1.5,0.6-3,1.2-4.5,2c-1.5,0.8-3,1.7-4.5,2.5c-1.5,0.8-2.9,1.6-4.4,2.3
		c-0.5,0.3-1.1,0.5-1.7,0.7c0.1-2.4,0.3-4.7,0.5-7c0.3-3.4,0.7-6.8,1-10.2c0.1-1.2,0.2-2.4,0.2-3.6c0-1.1,0.1-2.2,0.2-3.4l0-1.7
		c0-0.4,0-0.8,0.1-1.1l0-0.1c0-0.2,0.1-0.4,0.2-0.6c0.1-0.4,0.2-0.8,0.3-1.2c0.2-0.8,0.3-1.7,0.3-2.6c0.1-0.8,0.1-1.7,0.1-2.5v-0.6
		c0.4-0.2,0.8-0.3,1.3-0.5c0.6-0.2,1.1-0.4,1.5-0.6c0.5-0.2,0.7-0.2,0.7-0.2C235.1,27.1,235.5,27.1,236,27.1z M209.9,103.1l-0.6-1.1
		l-1.2,0.1c-0.3-0.2-0.6-0.5-1.1-0.6c-0.3-0.6-0.7-1.2-1.2-1.7l-1.6-2.1c-0.5-0.7-1-1.4-1.4-2.1c-0.2-0.3-0.4-0.7-0.6-1
		c0.2-0.3,0.3-0.7,0.4-1.1c0.1-0.2,0.1-0.3,0.2-0.3l1-0.9l-0.3-1.3c-0.3-1.1-0.8-2-1.6-2.6c-0.6-0.5-1.2-0.9-1.8-1.2
		c-0.4-0.2-0.9-0.5-1.3-0.7c-0.1,0-0.1-0.1-0.2-0.1c0-0.8-0.2-1.6-0.4-2.4c-0.3-0.9-0.6-1.7-1-2.5c-0.3-0.6-0.6-1.3-0.9-2
		c-0.2-0.5-0.3-0.9-0.3-1.5c0-0.3,0-0.4,0-0.4c0,0,0,0,0,0l0.3-1.2l-0.7-0.7c0.2-0.3,0.3-0.7,0.3-1.2c0-0.4-0.1-0.8-0.3-1.1
		c-0.5-1.5-0.9-3.1-1.2-4.7c-0.3-1.8-0.6-3.6-0.8-5.3c-0.3-1.8-0.5-3.6-0.7-5.4c-0.2-1.7-0.5-3.5-0.9-5.2c0.2-0.4,0.3-0.8,0.3-1.3
		v-1.4l-0.6-0.4c0-0.7-0.1-1.3-0.3-1.8c0-0.2,0.1-0.4,0.1-0.6l1.4-1l-1.4-1.8c-0.3-0.5-0.8-0.8-1.3-1c-0.1-0.4-0.2-0.8-0.3-1.2
		c1.2-0.3,2.4-0.7,3.4-1.2c1.1-0.6,2.3-1.3,3.4-2.1c0.2,0,0.4,0,0.6,0c1.1,0.1,1.9-0.3,2.4-0.7c0.6-0.3,1-0.8,1.2-1.4l0.4-0.1
		l0.1-0.1c0.5-0.2,0.9-0.5,1.4-0.9c0,0,0,0,0.1,0c0.5-0.1,0.9-0.2,1.4-0.3c0.7-0.1,1.4-0.3,2.1-0.7c1.2-0.5,2.4-1,3.5-1.5
		c0.9-0.4,1.8-0.6,2.9-0.6h1.5l0.6-0.6c0.5-0.4,1-0.7,1.8-0.9c0.2-0.1,0.4-0.1,0.6-0.2c0,0.3,0.1,0.6,0.1,1c0.1,1.1,0.1,2.3,0.1,3.4
		c0,2.4-0.1,4.8-0.3,7.2c-0.2,2.5-0.5,5-0.7,7.5c-0.1,1.2-0.2,2.4-0.2,3.6c0,1.1,0,2.2-0.1,3.3c0,0.5-0.1,1-0.2,1.6
		c-0.1,0.7-0.2,1.4-0.3,2l-0.8,7.4c-0.2,0.3-0.3,0.6-0.3,0.9c-0.3,0.4-0.6,0.7-0.9,1c-0.8,0.7-1.7,1.9-1.7,3.9c0,1.7,0.5,3,1.4,3.9
		c0.2,0.2,0.4,0.5,0.6,0.8c-0.1,1.4-0.2,2.9-0.2,4.4c0,1.7-0.1,3.3-0.2,5c-0.1,1.6-0.3,3.2-0.5,4.8c-0.2,1.5-0.6,2.9-1.1,4.2
		c-0.4,1-0.7,2-0.9,3c-0.1,0.8-0.2,1.7-0.2,2.5C210.4,103,210.2,103,209.9,103.1z M171.7,79.6v-0.9c0-0.4,0-0.8,0-1.2
		c0-0.2,0-0.4,0-0.6l0-0.1c0-0.1,0.1-0.3,0.1-0.5c0.1-0.4,0.2-0.9,0.4-1.4c0.2-0.6,0.3-1.2,0.4-1.7c0.2-0.7,0.2-0.8,0.2-0.9l0.1-0.2
		c0.5-2.4,1-4.9,1.4-7.4c0.4-2.3,1-4.5,1.9-6.7l0.3-0.7l-0.3-0.8c-0.1-0.3-0.2-0.6-0.2-0.9c0-0.3-0.1-0.7-0.1-1
		c0-0.4,0.1-0.9,0.2-1.5c0-0.1,0-0.1,0.1-0.2l1-0.6l0-1.2c0.1-2.7,0.3-5.5,0.5-8.2c0.1,0.2,0.3,0.5,0.5,0.7c0,0.2-0.1,0.4-0.1,0.6
		v0.6l0.2,0.4c0.7,1.7,1.2,3.4,1.6,5.1c0.4,1.8,0.7,3.6,0.9,5.4c0.2,1.8,0.4,3.7,0.6,5.6c0.2,2,0.4,3.9,0.7,5.9
		c0.6,3.6,1.2,7.3,2,10.8c0.6,3,1.3,6,1.9,9c0,0-0.1,0-0.1,0c-0.1,0-0.1,0-0.1,0l-0.6-0.3l-0.7,0.1c-1,0.1-1.6,0.6-2,1
		c0,0-0.1,0-0.1,0c-0.5,0-0.9,0-1.3,0c-0.6,0-1.2,0.1-1.9,0.1c-0.6,0.1-1.3,0.2-1.8,0.3c-1.6,0.2-3.3,0.4-5,0.7
		c-1.3,0.2-2.6,0.3-3.9,0.3c0.3-1,0.6-2,0.9-3c0.5-1.7,0.9-3.5,1.1-5.3L171.7,79.6z M16,83.6l0.2,0.4l0.3,0.3
		c0.5,0.5,1.2,0.8,2.2,0.8c1.1,0,2.1-0.2,3.1-0.6c0.5-0.2,0.9-0.3,1.5-0.3c0.3,0,0.5,0.1,0.6,0.2l1.8,1.5l1.3-1.9
		c0-0.1,0.1-0.1,0.3-0.2c0.6-0.2,1.2-0.3,1.8-0.4c0.8-0.1,1.5-0.3,2.3-0.5c0.5-0.1,0.9-0.3,1.3-0.5c0.5,0.1,1,0,1.8-0.2l0.3-0.1
		l0.3-0.2c0.2-0.2,0.5-0.3,0.8-0.5c0.2-0.1,0.4-0.2,0.6-0.3c1.4,0,2.7-0.2,3.8-0.8c0.8-0.4,1.6-0.7,2.5-1.1c0.6,0,1.2-0.1,1.8-0.3
		c0.6-0.2,1.2-0.4,1.7-0.6c0.4-0.2,0.9-0.4,1.4-0.5c0.3-0.1,0.6-0.2,1-0.2c0,0,0.1,0,0.1,0c0.3,0,0.5,0.1,0.8,0.1H50l0.3-0.1
		c0.9-0.3,1.8-0.7,2.6-1.2c0.3-0.2,0.5-0.2,0.9-0.3c0.4,0.2,0.9,0.3,1.4,0.3c0.7,0,1.4-0.3,2-0.9c0,0,0,0,0,0c0,0.5,0.2,1.1,0.4,1.5
		c-0.1,0.3-0.2,0.6-0.4,1l-0.4,1.1c-0.1,0.3-0.3,0.6-0.3,0.9c-1.1,1.9-2.3,3.9-3.4,5.7c-1.1,1.8-2.3,3.5-3.5,5.1
		c-1.2,1.6-2.6,3.1-4.2,4.5c-1.5,1.4-3.3,2.7-5.3,3.9l0,0c-1.2,0.8-2.5,1.6-3.9,2.4c-1.3,0.8-2.6,1.5-4,2.2
		c-1.3,0.6-2.7,1.2-4.1,1.6c-1.3,0.4-2.6,0.6-3.8,0.6c-1.5,0-3-0.3-4.5-1c-0.5-0.7-1.1-1.4-1.6-2c-0.6-0.7-1.2-1.3-1.9-1.9
		c-0.4-0.9-0.8-1.7-1.2-2.4c-0.4-0.7-0.7-1.4-1.1-2.1c-0.3-0.5-0.5-1.2-0.6-1.8c-0.1-0.7-0.2-1.6-0.2-2.8c0-1,0-2.1,0-3.1
		c0-1.1-0.1-2.2-0.4-3.3c0.3-1.5,0.7-3,1.1-4.5l0,0.1l1,0.5c0.1,0,0.1,0.1,0.2,0.2C15.6,82.5,15.8,83.1,16,83.6z M146.7,89.4
		c-0.1-0.1-0.3-0.2-0.5-0.4C146.3,89.1,146.5,89.2,146.7,89.4z M194.9,105C194.9,105,194.9,105,194.9,105l2-0.8c0,0,0,0,0,0
		L194.9,105z"/>
	<path fill="#D05A3D" d="M511.9,17.4c0-1-0.1-2-0.1-2.9c0-1.4-0.3-2.6-0.9-3.8l-0.5-0.9l-1-0.2c-0.6-0.1-0.9-0.3-1-0.4
		c-0.4-0.3-0.8-0.6-1.2-0.8c-0.6-0.5-1.2-0.8-1.9-1.1c-0.8-0.4-1.8-0.5-3-0.5c-1.7,0-3.4,0.2-4.9,0.7c-1.2,0.3-2.4,0.5-3.6,0.5h-0.4
		l-0.9-0.3l-0.9,0.6c-0.7,0.5-1.5,0.9-2.3,1.2c-0.8,0.3-1.5,0.4-2.3,0.4h-0.9l-0.5,0.3c-1.1,0.7-2.2,1.2-3.4,1.5
		c-1.3,0.4-2.7,0.7-4.1,1c-1.5,0.3-2.9,0.6-4.4,1c-1.4,0.4-2.7,0.8-3.9,1.5c-0.6,0-1.1,0.1-1.5,0.2c-0.5,0.1-1,0.3-1.4,0.5
		c-0.5,0.2-0.9,0.4-1.3,0.7c0,0-0.1,0.1-0.2,0.1l-1.7,0.2l-0.2,0c-0.8,0.2-1.7,0.4-2.5,0.7c-0.6,0.2-1.2,0.3-1.9,0.3
		c-0.6,0-0.8,0-0.8,0l-1.2-0.2l-0.8,0.9c-0.2,0.2-0.4,0.4-0.8,0.5c-0.6,0.2-1.3,0.4-2,0.6c-0.8,0.2-1.7,0.5-2.5,0.7
		c-0.5,0.2-0.9,0.4-1.4,0.6c-0.3-0.1-0.7-0.2-1.1-0.2c-1,0-2.1,0.3-3.1,0.9c-0.4,0.2-0.7,0.3-1.1,0.3c0,0,0,0,0,0l-1.7-1.9l-1.6,2.2
		c-0.1,0.1-0.3,0.3-0.7,0.5c-0.7,0.2-1.3,0.3-1.8,0.2l-2.7-2.1l-0.7,3.2c-0.2,0.1-0.4,0.2-0.6,0.2c-0.5,0.1-1,0.2-1.5,0.4
		c-0.3,0.1-0.7,0.2-1,0.3c-0.2-0.1-0.5-0.1-0.7-0.1c-0.8,0-1.6,0.1-2.4,0.3l0-1.2l1.6,0.3v-3.6c0-0.3,0-0.5,0-0.8
		c0.1-0.1,0.2-0.1,0.3-0.2c0.9-0.7,1.6-1.6,1.9-2.8l0.3-1.1l-0.5-0.7v-1.6l-1.4-0.5c-0.3-0.1-0.6-0.3-0.9-0.4l-0.2-1.4l-1.5-0.3
		c-1.5-0.2-3-0.5-4.5-0.8c-1.7-0.3-3.4-0.5-5-0.5c-0.5,0-1,0.1-1.5,0.2c-0.5-0.3-1-0.5-1.7-0.5h-1.4L414,9.4c-0.1,0-0.1,0-0.2,0
		c-0.3,0-0.6,0-1-0.1c-0.6-0.1-1.3,0-1.9,0.1c-1.2,0.2-2.3,0.5-3.3,0.9c-0.6,0.3-1.3,0.4-2,0.4h-1l-0.4,0.2
		c-0.8,0.3-1.5,0.6-2.3,0.9c-0.6,0.2-1.2,0.3-1.8,0.3h-2.1l-0.4,1.1c-0.1,0-0.1,0-0.2,0c-0.4,0.1-0.8,0.2-1.2,0.3
		c-0.4,0.1-0.7,0.3-1,0.5c-0.7,0.1-1.3,0.3-1.6,0.6c0,0,0,0,0,0h-1.8l-0.6,1.1C391.1,16,391,16,391,16l-0.1,0
		c-2.3,1.1-4.6,2.2-6.8,3.3c-2.2,1.1-4.3,2.4-6.3,4.1c-0.5,0.1-1,0.4-1.4,0.7c-0.3,0.3-0.6,0.5-0.9,0.8c-0.1,0.1-0.2,0.2-0.4,0.3
		h-1.8l-0.2,1.9c0,0,0,0.1,0,0.1c-0.2,0.3-0.4,0.6-0.5,0.9c-2.9,1.5-5.1,3.7-6.6,6.5c-1.5,3-2.3,6.2-2.3,9.6c0,2.4,0.4,4.9,1.2,7.5
		l0.2,0.6l0.5,0.4c0.2,0.1,0.3,0.3,0.4,0.5c0,0,0,0,0,0c0,0,0,0.1,0,0.1l-0.5,1.4l1.1,0.9c0.9,0.8,1.8,1.7,2.6,2.6
		c0.7,0.8,1.3,1.8,1.7,2.9l0.3,0.9l0.9,0.4c0.7,0.3,1.3,0.6,1.9,0.9c0,0,0.1,0.1,0.1,0.3l0.3,2.5l2.4-0.6c0.2,0,0.3-0.1,0.4-0.1
		c0,0,0,0,0,0c0.5,0.6,1.1,1.1,1.7,1.6l0.4,0.3l0.5,0.1c0.6,0.2,1.2,0.4,1.7,0.7c0.7,0.4,1.3,0.7,1.9,1.1c0.7,0.4,1.5,0.8,2.4,1.2
		c0.6,0.3,1.3,0.4,1.9,0.6c0.2,0.2,0.4,0.4,0.6,0.6l0.4,1.1h1.9c0.2,0,0.5,0,0.7-0.1c0.1,0.1,0.2,0.1,0.3,0.1
		c0.4,0.2,0.9,0.4,1.4,0.6c0.3,0.1,0.6,0.2,0.8,0.4c0,0,0,0,0.1,0.1l0.6,1.1h1.3c0.6,0,1.2,0.1,1.8,0.3c0.7,0.2,1.4,0.5,2.1,0.7
		c0.7,0.3,1.5,0.6,2.2,0.9c0.7,0.3,1.4,0.5,2.2,0.6c1.2,1,2.6,1.7,4.1,2.1c1.2,0.3,2.3,0.6,3.4,0.8c0.4,0.5,0.9,0.9,1.4,1.2
		c0.5,0.3,1.1,0.5,1.6,0.7c0.5,0.2,0.9,0.4,1.3,0.6l0.5,1.1l1.1,0.2c1.3,0.2,2.4,0.7,3.2,1.4c0.9,0.8,1.7,1.6,2.5,2.6
		c-0.3,0.4-0.6,0.8-0.8,1.3c-2.1,1.2-4.1,2.2-6,3.1c-1.9,0.9-4.2,1.5-6.8,1.7l-0.6,0.1l-0.5,0.3c-0.4,0.3-0.9,0.5-1.4,0.7
		c-0.7,0.2-1.5,0.4-2.3,0.6c-0.8,0.2-1.5,0.3-2.3,0.3c-0.8,0.1-1.4,0.1-2,0.1c-0.6,0-1.2,0-1.7-0.1c-0.1-0.7-0.2-1.4-0.4-2.1
		c-0.3-0.8-0.7-1.6-1.2-2.2c-0.7-0.9-1.8-1.4-3-1.4c-0.8,0-1.5,0.2-2.3,0.5c-0.2,0.1-0.4,0.1-0.6,0.1h-1.1l-0.6,0.6
		c-0.8,0.8-1.5,1.8-2,2.9c-0.6,1.1-0.8,2.4-0.8,3.7c0,1.6,0.4,3.2,1.2,4.7c0.8,1.4,1.8,2.6,3,3.6l0.5,0.4l0.6,0.1
		c1.5,0.2,3.1,0.3,4.6,0.5c1.6,0.2,3.3,0.3,4.9,0.3c1,0,1.9-0.1,2.8-0.2c0.8-0.1,1.6-0.3,2.4-0.4h0.3c0.4,0,0.8,0.1,1.1,0.2l1.5,0.5
		l0.8-1c0.1,0,0.3-0.1,0.4-0.1c0.4-0.1,0.7-0.1,1.1-0.2c0.3-0.1,0.6-0.2,0.9-0.4c2,0,3.9-0.5,5.7-1.3c1.6-0.7,3.1-1.4,4.6-2.1
		c0.4-0.2,0.7-0.3,1.1-0.4c0.6-0.2,1.1-0.4,1.7-0.6c0.8-0.4,1.6-1,2.5-1.8c0.6-0.6,1.2-1,1.8-1.3l1-0.5l0.1-1.1
		c0-0.4,0.1-0.6,0.3-0.8c0.4-0.4,0.8-0.9,1.2-1.3c0.5-0.5,1-1,1.4-1.6c0.4-0.5,0.7-1,0.9-1.5c0.2-0.1,0.4-0.3,0.5-0.4l1-0.4l0.2-1.2
		c0.1-0.4,0.1-0.9,0.1-1.6c0-1.3-0.2-2.5-0.6-3.7c-0.3-0.7-0.5-1.5-0.5-2.3l-0.1-0.6l-0.4-0.5c-1-1.2-2.1-2.2-3.3-3.1
		c-1.1-0.8-2.3-1.5-3.6-2.2c-1.2-0.7-2.4-1.3-3.6-1.9c-1-0.5-2-1.2-2.9-1.9l-0.4-0.3l-0.5-0.1c-2.3-0.5-4.5-1.3-6.6-2.3
		c-2.3-1.1-4.6-2.1-7-3l-2.3-0.9l-0.1,0.3c-0.4-0.3-0.9-0.6-1.4-0.8c-0.8-0.4-1.7-0.7-2.6-1l-2.5-0.8c-0.6-0.2-1.1-0.4-1.5-0.7
		l-0.5-0.4l-0.6-0.1c-0.4,0-0.8-0.1-1.1-0.2c-0.6-0.2-1.2-0.3-1.8-0.3c-1.5-0.9-3-1.9-4.6-2.8c-1.7-1-3.3-2.2-4.8-3.4
		c-1.5-1.2-2.9-2.5-4.2-3.8c-1.2-1.2-2.2-2.6-3.1-4.1c-0.1-0.7-0.2-1.4-0.4-2c-0.1-0.6-0.2-1.1-0.2-1.7c0,0,0-0.1,0-0.2
		c0.3-0.4,0.6-0.8,0.8-1.2c0.2-0.5,0.5-1.1,0.6-1.6c0.2-0.5,0.3-1,0.5-1.6c0.1-0.2,0.1-0.4,0.2-0.5c0.1-0.1,0.2-0.2,0.2-0.2
		c0.8-0.3,1.4-0.8,1.9-1.4c0.4-0.5,0.8-1.1,1-1.6c1.1-0.4,2-0.9,2.8-1.5c0.6-0.5,1.3-1,1.9-1.7c0.9-0.4,1.8-0.8,2.6-1.4l2.4-1.6
		c0.8-0.5,1.6-1,2.4-1.5c0.7-0.4,1.4-0.6,2.3-0.8l0.8-0.2l0.5-0.7c0,0,0,0,0.1-0.1c0.6-0.2,1.1-0.5,1.6-0.8c0.7-0.1,1.4-0.2,2.1-0.4
		c0.8-0.2,1.6-0.5,2.4-0.7c0.8-0.2,1.6-0.4,2.3-0.6c0.6-0.1,1.3-0.2,2-0.2h0.1c0.4,0.5,1,0.9,1.7,1.2c1.7,0.8,3.6,0.8,5.5,0.1
		c0.6-0.2,1.1-0.5,1.6-0.9c0.9,0,1.8,0,2.7,0c1.1-0.1,2.1-0.1,3.1-0.1c0.7,0,1.4,0,2.1,0.1c0.5,0.1,0.9,0.2,1.4,0.5l1.7,1
		c-0.3,0.1-0.7,0.1-1,0.1c-0.2,0-0.3,0-0.4,0c-0.2,0-0.3,0-0.5-0.1l-0.7-0.1l-0.7,0.3c-1.6,0.8-2.8,2-3.5,3.7c-0.6,1.5-1,3-1,4.6
		c0,1.2,0.2,2.4,0.5,3.7l0.3,1l1,0.4c0.9,0.4,1.7,0.8,2.4,1.2c1.1,0.6,2.3,1,3.8,1.2l2,0.2l0.4-1.9c1.5-0.2,2.9-0.5,4.3-1
		c1.5-0.5,3.1-1.1,4.6-1.7c1.5-0.6,2.9-1.1,4.4-1.6c1.4-0.5,2.8-0.8,4.2-0.9l2.2-0.2l-0.1-1c0,0,0,0,0.1,0h0.8
		c1.3,0,2.6-0.2,3.8-0.5c0.9-0.3,1.9-0.4,2.8-0.5l1.2,0l0.6-1.1c0,0,0,0,0.2-0.1c0.1-0.1,0.3-0.1,0.4-0.1c0,0.1,0,0.2,0,0.3
		c0,1.4-0.1,2.7-0.4,4.1c-0.2,1.4-0.4,2.8-0.4,4.2c-0.3,0.6-0.5,1.3-0.6,2.1c-0.1,0.8-0.2,1.7-0.2,2.5c0,0.7,0,1.3-0.1,2
		c0,0.5-0.1,0.6-0.1,0.6l-0.3,0.5l0,0.6c-0.1,2.9-0.4,5.7-1,8.4c-0.6,2.9-1,5.9-1.3,8.9c-0.1,0.5-0.1,1-0.1,1.7
		c0,0.6-0.1,1.1-0.2,1.7c-0.1,0.6-0.2,1.1-0.3,1.5c0,0.2-0.1,0.2-0.1,0.3l-0.8,0.7l0.1,1.1c0.1,1.6,0.1,3.2,0,4.8
		c-0.1,1.7-0.2,3.4-0.2,5.2c0,1.7,0.1,3.3,0.4,4.9c-0.4,0.5-0.6,1.2-0.5,1.9v1.2l0.6,0.4c0,0.1,0,0.2,0,0.2l-1.4,1.9l2.1,1.2
		c0,0,0.1,0.1,0.1,0.3c0.1,1,0.2,1.8,0.3,2.6l0.1,0.4l0.2,0.3c0.3,0.6,0.7,1.2,1.1,1.6c0,0,0,0.1,0,0.2l-0.1,1.2l1,0.7
		c0.4,0.3,0.8,0.6,1.1,0.9c0.2,0.2,0.3,0.4,0.4,0.6l0.3,0.8l0.7,0.4c0.4,0.2,0.8,0.3,1.2,0.4c0.3,0,0.6,0.1,0.9,0.1
		c0.7,0,1.4-0.2,2.1-0.5c0.5,0.3,1,0.4,1.5,0.4c0.8,0,1.7-0.2,2.5-0.7c0.7-0.4,1.3-0.9,1.8-1.5c0.4-0.6,0.7-1.3,0.9-2.5
		c0.1-0.7,0.2-1.3,0.3-1.6l0-0.1c0.1-0.4,0.2-0.9,0.3-1.3c0.2-0.7,0.3-1.4,0.3-2.2v-1.3l-0.8-0.6c-0.9-0.8-2-1.4-3.2-1.8
		c-0.3-0.1-0.5-0.2-0.7-0.3c0-0.2,0-0.4,0-0.6c0-0.9-0.2-1.7-0.7-2.6c0.1-1.6,0-3.1-0.2-4.6c-0.2-1.5-0.3-3-0.3-4.5
		c0-0.1,0-0.2,0-0.3c0.1-0.2,0.1-0.5,0.2-0.8l0.1-0.2l0.7-5.3c0.4-3.1,0.8-6.2,1.1-9.2c0.3-2.9,0.8-5.8,1.7-8.6l0.2-0.6l-0.1-0.6
		c0-0.1-0.1-0.2-0.1-0.3l0.2-0.1l0.6-1.2V50c0-0.7-0.2-1.3-0.6-1.8c0.5-3,0.9-6.1,1.2-9.2c0.3-3.1,0.9-6.2,1.8-9.2l0.2-0.6l-0.1-0.6
		c-0.1-0.4-0.2-0.8-0.3-1.2c1-0.5,2.1-0.9,3.2-1.3c1.6-0.6,3.3-1.1,4.9-1.5c1.6-0.4,3.3-0.9,5-1.3c1.4-0.3,2.7-0.7,4.1-1.1
		c0.1,0,0.2,0.1,0.3,0.1l1.6,3.9l2-5c0.3-0.2,0.7-0.3,1.2-0.4c0.6-0.2,1.3-0.4,1.8-0.5c0.3-0.1,0.6-0.2,0.9-0.4
		c0.3,0.1,0.6,0.1,0.9,0.1c0.9,0,1.7-0.2,2.5-0.6c0.1-0.1,0.2-0.1,0.3-0.1c0.3,0.2,0.7,0.4,1,0.6c0.5,0.3,0.9,0.6,1.3,1l2.1,2.1
		l1.3-2.5c0.2-0.1,0.5-0.1,0.8-0.2c0.5-0.1,0.9-0.1,1.3-0.2c0.8-0.1,1.5-0.3,2.2-0.8l1.1-0.7L511.9,17.4z"/>
</g>
</svg>
