<svg version="1.1" xmlns="http://www.w3.org/2000/svg" x="0px" y="0px" viewBox="0 0 512 512">
<g>
	<path fill="#D05A3D" d="M280.1,146.4l-4.5-0.6c-0.4,0-0.8-0.1-1.3-0.1c-0.4,0-0.7-0.1-1.1-0.2c-0.1,0-0.2,0.1-0.3,0.1
		c-0.5,0.2-1.1,0.5-1.6,0.7c-0.7,0.4-1.5,0.7-2.3,1c-0.6,0.2-1.2,0.4-1.8,0.5c-0.6,0.5-1.4,0.8-2.1,1.1c-0.8,0.3-1.7,0.6-2.5,0.8
		c-0.6,0.2-1.1,0.3-1.6,0.6l-1,1.4l-1.7,0.2c-0.7,0.1-1.4,0.2-2,0.5c-0.9,0.4-1.9,0.9-2.9,1.4c-1,0.5-2.1,1.1-3.2,1.5
		c-1,0.5-2.1,0.8-3.3,1c-0.3,0.2-0.7,0.4-1.1,0.6c-0.5,0.2-1,0.5-1.6,0.7c-0.3,0.1-0.5,0.2-0.8,0.3l-1,1.3h-2.1
		c-0.3,0-0.5,0-0.8-0.1c-0.8,0.4-1.7,0.8-2.5,1.2c-1.3,0.6-2.7,1.3-4.1,1.9c-2.7,1.1-5.3,2.2-8,3.2c-2,0.8-3.9,1.7-5.8,2.7
		c-0.4,1.4-0.7,2.9-0.9,4.4c-0.4,2.2-1,4.3-1.9,6.3v0.7c0,0,0.1,0,0.1,0c1.2-0.3,2.4-0.4,3.6-0.4c0.3,0,0.6,0,0.9,0
		c0.1,0,0.1,0,0.2-0.1c0.6-0.2,1-0.4,1.2-0.5l2.4-1l1.8,1.9c0.5,0.5,1,1,1.6,1.4c1.1-0.5,2.3-0.9,3.4-1.2c1.5-0.5,3-0.8,4.6-1.1
		c0.4-0.3,0.9-0.6,1.3-0.8c1.4-0.8,2.9-1.1,4.4-1c0.7-0.3,1.5-0.7,2.4-1c1.1-0.4,2.1-0.6,3.1-0.7c0.3-0.2,0.7-0.4,1-0.5
		c0.9-0.3,1.8-0.4,2.8-0.4c0.5-0.2,1.1-0.4,1.6-0.6c0.7-0.2,1.4-0.3,2.1-0.4c0.5-0.1,0.9-0.2,1.3-0.3c0.1,0,0.1,0,0.2-0.1l1.2-1.1
		l1.6,0.1c1.5,0.1,2.8,0.6,3.9,1.5c0.8,0.6,1.4,1.4,2,2.3c0.4,0.7,0.8,1.5,1.1,2.3c0.1,0.3,0.3,0.7,0.5,1l0.8,1.3l-0.4,1.5
		c-0.3,1-0.7,1.9-1.3,2.5c-0.3,0.3-0.6,0.7-1,0.9l-0.3,2.4h-3.3c-1.4,0-2.8,0.2-4.1,0.6c-1.5,0.5-3.1,1-4.6,1.6
		c-1.7,0.7-3.4,1.3-5.1,1.9c-1.6,0.6-3.3,1-5,1.2c-0.3,0.2-0.7,0.4-1.1,0.5l-1,0.3l-1.2,2.9l-3.2-1.6c-0.1,0-0.2,0.1-0.4,0.2
		c-1.2,0.7-2.5,1.1-3.9,1.2c-0.4,0.3-0.8,0.5-1.2,0.6c-0.7,0.3-1.4,0.5-2.1,0.7c-0.1,0-0.3,0.1-0.4,0.1l-1.2,2.4l-2.8-0.9h-0.2
		c-0.3,0-0.9,0.1-1.8,0.3c0,0-0.1,0-0.1,0l-1.3,2.2l-2.7-0.7c-0.1,0-0.2,0-0.2,0c-0.1,0-0.2,0-0.2,0c-0.4,0.2-0.9,0.5-1.3,0.8
		l-1.7,1.1c-0.4,0.3-0.9,0.5-1.4,0.7c-0.7,1.2-1.2,2.6-1.5,4.1c-0.5,2.3-0.8,4.7-1,7.2c-0.2,2.6-0.4,5.3-0.6,7.9
		c-0.2,2.4-0.5,4.7-1.1,6.8c0.2,0.7,0.4,1.4,0.5,2.1c0.2,1,0.3,2,0.4,3l0.3,2.9c0.1,0.7,0.2,1.4,0.4,2.1l0.1,0.2
		c0.1,0.5,0.3,0.9,0.7,1.3c0.5,0.5,0.9,1.1,1.2,1.7c0.9-0.1,1.7-0.3,2.3-0.6c1.1-0.6,2.2-1.3,3.2-2.2c1.1-1,2.2-2,3.3-3.1
		c1.3-1.4,2.8-2.6,4.3-3.7l1-0.7h0.6c0.2-0.4,0.5-0.7,0.8-1.1c0.6-0.7,1.2-1.4,2-1.9c0.3-0.2,0.6-0.4,0.9-0.5
		c0.4-0.6,0.8-1.1,1.4-1.6l1.1-4.4l2.5,1.2c0.5-0.4,0.9-0.9,1.5-1.3c0.5-0.4,1-0.8,1.4-1.1l0.1-0.1c1.5-1.1,3-2.2,4.5-3.2
		c1.2-0.9,2.4-1.9,3.4-3.1l2.7-3l0.3,0.3l0.7-2.4l5.7,0.7c0.7,0.1,1.3,0.1,2,0.1l2.7-1.4l1.8,2.9c1,1.5,1.5,3.2,1.6,4.9
		c0,0.2,0,0.4,0,0.6c0.9,0,1.8,0.1,2.6,0.2c0.6,0.1,1.2,0.1,1.9,0.2c0.7-1.6,1.4-3.2,1.9-4.8c0.8-2.2,1.4-4.4,1.8-6.7l0.1-0.8
		l0.5-0.7c0.2-0.3,0.4-0.7,0.6-1.2c0.2-0.5,0.4-1,0.5-1.5c0.1-0.6,0.2-1.2,0.3-1.8c0.1-0.6,0.1-1.2,0.1-1.6v-1.4l0.9-1.1
		c0.2-0.2,0.3-0.5,0.4-0.9c0.2-0.9,0.4-1.8,0.5-2.7c0.2-1.1,0.3-2.2,0.5-3.2c0.2-1.1,0.5-2.1,1-3.1c0-0.3,0-0.5-0.1-0.5l-1.1-3.4
		l1.7-0.7c0.1-2.2,0.4-4.3,0.8-6.4c0.4-1.8,0.7-3.6,0.9-5.4c-0.3-0.6-0.4-1.2-0.4-1.8c0-0.7,0.1-1.5,0.2-2.5
		c0.1-0.7,0.2-1.3,0.2-1.7c0.3-2.7,0.4-5.3,0.4-7.8c0-2.2-0.1-4.4-0.2-6.6C280.3,149.5,280.2,147.9,280.1,146.4z"/>
	<path fill="#D05A3D" d="M295.4,198.2c-0.3-2-0.6-4-0.7-6c-0.1-1.8-0.3-3.7-0.6-5.5c-0.1-0.9-0.2-1.7-0.4-2.6l-1.1,0.6
		c0,0.3-0.1,0.5-0.1,0.6c0,0.3,0,0.5,0.1,0.8c0,0.2,0.1,0.4,0.1,0.6l0.4,1.3l-0.5,1.3c-0.8,2-1.4,4.2-1.8,6.3
		c-0.4,2.5-0.9,5-1.4,7.4l-0.1,0.4c0,0.1-0.1,0.3-0.2,0.7c-0.1,0.6-0.3,1.2-0.5,1.8c-0.1,0.5-0.3,1-0.3,1.4c0,0.2-0.1,0.3-0.1,0.4
		l0,0c0,0.1,0,0.2,0,0.3c0,0.5,0,0.9,0,1.4v1.6l-1.3,1.3c-0.2,1.7-0.6,3.4-1.1,5c-0.1,0.2-0.1,0.5-0.2,0.7c0.5,0,1-0.1,1.4-0.2
		c1.6-0.2,3.3-0.4,4.9-0.6c0.6-0.1,1.2-0.2,1.9-0.3c0.7-0.1,1.3-0.1,1.9-0.1c0.3,0,0.6-0.1,0.9-0.1c0.5-0.4,1.2-0.7,2-0.9
		c-0.5-2.3-0.9-4.6-1.4-6.8C296.7,205.5,296,201.8,295.4,198.2z"/>
	<polygon fill="#D05A3D" points="244.9,153.1 244.9,153.1 244.9,153.1 	"/>
	<path fill="#D05A3D" d="M169.9,208.6c-0.9,0.5-1.9,1-2.9,1.3l-0.6,0.2h-0.6c-0.3,0-0.7,0-1-0.1c-0.1,0-0.3,0-0.4,0.1
		c-0.4,0.1-0.9,0.3-1.3,0.5c-0.6,0.3-1.2,0.5-1.9,0.7c-0.7,0.2-1.3,0.3-2,0.3c-0.8,0.3-1.5,0.6-2.1,0.9c-1.3,0.6-2.7,0.9-4.2,0.9
		c-0.1,0-0.2,0.1-0.3,0.1c-0.2,0.1-0.3,0.2-0.5,0.3l-0.5,0.3l-0.5,0.2c-0.7,0.2-1.3,0.4-1.9,0.4c0,0,0,0,0,0
		c-0.4,0.2-0.8,0.3-1.2,0.4c-0.8,0.2-1.6,0.4-2.4,0.5c-0.5,0.1-0.9,0.2-1.3,0.3l-2.1,3l-2.9-2.4c-0.2,0-0.4,0.1-0.7,0.2
		c-1.2,0.5-2.4,0.7-3.7,0.7c-1.7,0-2.7-0.7-3.3-1.3l-0.4-0.4c-0.1,0.2-0.1,0.5-0.2,0.7c0.2,1.1,0.4,2.2,0.3,3.3c0,1,0,2,0,3
		c0,1.3,0.1,2,0.2,2.4c0.1,0.6,0.3,1,0.5,1.4c0.3,0.6,0.6,1.3,1,2c0.3,0.6,0.7,1.3,1.1,2.1c0.7,0.6,1.3,1.2,1.8,1.8
		c0.5,0.5,1,1.1,1.4,1.8c2.2,0.9,4.3,0.9,6.7,0.2c1.3-0.4,2.6-0.9,3.8-1.5c1.3-0.6,2.6-1.3,3.8-2.1c1.3-0.8,2.6-1.6,3.8-2.4l0.1,0
		c1.9-1.1,3.6-2.4,5-3.7c1.4-1.4,2.8-2.8,4-4.3c1.2-1.5,2.3-3.1,3.4-4.9c1-1.7,2.1-3.5,3.2-5.5c0.1-0.3,0.2-0.6,0.3-0.9l0.2-0.5
		C170.9,208.9,170.3,208.8,169.9,208.6z"/>
	<path fill="#D05A3D" d="M264.7,0C148.3,0,54,94.3,54,210.7S148.3,512,264.7,512s210.7-185,210.7-301.3S381,0,264.7,0z M383.8,287.9
		c-0.9,0.6-1.9,0.9-2.9,1c-0.4,0-0.7,0.1-1.1,0.2l-1.9,3.9l-3.7-3.7c-0.3-0.3-0.6-0.5-0.9-0.7c-0.1-0.1-0.2-0.1-0.3-0.2
		c-1.1,0.5-2.3,0.7-3.4,0.5c-0.2,0.1-0.4,0.1-0.6,0.2c-0.6,0.2-1.2,0.4-1.9,0.6c-0.1,0-0.2,0.1-0.3,0.1l-3.2,8.1l-2.6-6.4
		c-1,0.3-1.9,0.5-2.9,0.8c-1.7,0.4-3.3,0.8-5,1.3c-1.6,0.4-3.2,0.9-4.8,1.5c-0.6,0.2-1.2,0.4-1.8,0.7l0.2,0.9l-0.3,1
		c-0.8,2.9-1.4,5.8-1.7,8.8c-0.3,2.9-0.6,5.8-1.1,8.6c0.3,0.6,0.5,1.3,0.5,2.1v0.9l-0.6,1.2l0.1,0.6l-0.3,1
		c-0.8,2.7-1.3,5.4-1.6,8.2c-0.3,3.1-0.6,6.2-1.1,9.2l-0.7,5.4l-0.1,0.3c-0.1,0.2-0.1,0.4-0.2,0.6c0,1.4,0.1,2.8,0.3,4.2
		c0.2,1.5,0.3,3,0.3,4.5c0.4,0.8,0.6,1.6,0.6,2.4c1.2,0.4,2.3,1.1,3.3,1.9l1.3,1.1v2c0,0.9-0.1,1.8-0.4,2.6
		c-0.1,0.4-0.2,0.7-0.3,1.1l0,0.2c-0.1,0.2-0.1,0.6-0.3,1.5c-0.2,1.4-0.6,2.4-1.2,3.2c-0.6,0.8-1.3,1.4-2.2,2
		c-1.1,0.6-2.2,0.9-3.3,0.9c-0.5,0-0.9-0.1-1.4-0.2c-0.7,0.3-1.4,0.4-2.1,0.4c-0.4,0-0.8,0-1.1-0.1c-0.6-0.1-1.1-0.3-1.6-0.5
		l-1.3-0.6l-0.5-1.3c0,0,0-0.1,0-0.1c-0.2-0.2-0.5-0.5-0.8-0.7l-1.8-1.2l0.1-1.7c-0.3-0.4-0.6-0.8-0.8-1.3l-0.3-0.6l-0.1-0.7
		c-0.1-0.6-0.2-1.3-0.2-2.1l-3-1.7l1.5-2.1v-2c-0.1-0.8,0.1-1.6,0.4-2.3c-0.2-1.5-0.4-3-0.4-4.6c0-1.8,0.1-3.5,0.2-5.3
		c0.1-1.5,0.1-3,0-4.6l-0.1-1.9l1.1-0.9c0.1-0.3,0.2-0.7,0.2-1.1c0.1-0.5,0.1-1,0.1-1.5c0-0.7,0.1-1.3,0.1-1.8c0.3-3,0.7-6,1.3-9
		c0.5-2.6,0.8-5.4,0.9-8.1l0-1l0.4-0.7c0,0,0,0,0-0.1c0-0.6,0.1-1.2,0.1-1.8c0-0.9,0.1-1.8,0.2-2.7c0.1-0.8,0.3-1.5,0.6-2.2
		c0-1.4,0.2-2.7,0.4-4.1c0.1-0.4,0.1-0.8,0.2-1.2l-0.5,0c-0.8,0-1.6,0.2-2.4,0.4c-1.1,0.3-2.2,0.5-3.3,0.6l0.1,0.9l-3.8,0.4
		c-1.3,0.1-2.6,0.4-3.8,0.8c-1.4,0.5-2.9,1-4.3,1.6c-1.5,0.6-3.1,1.2-4.7,1.7c-1.1,0.4-2.3,0.7-3.4,0.9l-0.4,2.2l-3.4-0.3
		c-1.7-0.2-3.2-0.6-4.4-1.4c-0.6-0.4-1.3-0.7-2.1-1l-1.7-0.7l-0.5-1.8c-0.4-1.4-0.6-2.8-0.6-4.1c0-1.8,0.4-3.5,1.1-5.2
		c0.6-1.3,1.4-2.4,2.4-3.2c-0.7,0-1.4,0.1-2.1,0.1c-0.7,0.1-1.5,0.1-2.2,0.1c-0.5,0.3-1,0.6-1.5,0.8c-2.2,0.8-4.6,0.8-6.7-0.2
		c-0.6-0.3-1.2-0.6-1.6-1.1c-0.4,0-0.7,0.1-1.1,0.2c-0.7,0.2-1.5,0.4-2.2,0.6c-0.8,0.2-1.6,0.5-2.4,0.7c-0.6,0.2-1.2,0.3-1.9,0.4
		c-0.4,0.3-0.9,0.5-1.3,0.7l-0.6,0.8l-1.4,0.3c-0.7,0.1-1.3,0.3-1.8,0.6c-0.8,0.4-1.5,0.9-2.2,1.4l-2.4,1.6c-0.8,0.5-1.7,1-2.6,1.4
		c-0.7,0.7-1.3,1.2-1.9,1.7c-0.7,0.5-1.6,1-2.5,1.4c-0.3,0.5-0.6,1-1,1.4c-0.6,0.7-1.2,1.2-2,1.6c-0.1,0.5-0.3,1-0.4,1.5
		c-0.2,0.6-0.4,1.2-0.7,1.8c-0.2,0.4-0.4,0.7-0.6,1.1c0,0.3,0.1,0.6,0.1,0.9c0.2,0.6,0.3,1.3,0.3,1.9c0.8,1.3,1.7,2.4,2.7,3.5
		c1.2,1.3,2.6,2.5,4,3.6c1.5,1.1,3,2.2,4.6,3.2c1.4,0.9,2.8,1.7,4.2,2.6c0.6,0.1,1.3,0.2,1.9,0.4c0.2,0.1,0.5,0.1,0.7,0.1l1.1,0.1
		l0.9,0.6c0.3,0.2,0.6,0.4,1,0.5l2.5,0.8c0.8,0.3,1.7,0.6,2.4,0.9l0-0.1l4,1.5c2.4,0.9,4.8,1.9,7,3c1.9,0.9,4,1.6,6.2,2.1l0.9,0.2
		l0.7,0.6c0.8,0.6,1.6,1.2,2.5,1.7c1.2,0.6,2.4,1.3,3.6,1.9c1.3,0.7,2.5,1.5,3.7,2.3c1.4,0.9,2.6,2.1,3.6,3.4l0.7,0.9l0.1,1.1
		c0.1,0.7,0.2,1.3,0.4,1.9c0.5,1.3,0.7,2.7,0.7,4.2c0,0.8,0,1.4-0.1,1.9l-0.4,2l-1.5,0.6c0,0,0,0-0.1,0.1c-0.2,0.5-0.5,1-0.9,1.5
		c-0.5,0.6-1,1.2-1.5,1.7c-0.3,0.3-0.6,0.7-1,1c0,0,0,0,0,0.1l-0.3,1.9l-1.7,0.9c-0.5,0.3-1,0.6-1.5,1.1c-1,1-2,1.6-2.9,2.1
		c-0.6,0.3-1.3,0.5-1.9,0.7c-0.3,0.1-0.6,0.2-0.9,0.3c-1.5,0.7-3,1.3-4.5,2.1c-1.9,0.9-3.9,1.3-5.9,1.4c-0.3,0.1-0.6,0.2-0.9,0.3
		c-0.3,0.1-0.6,0.2-1,0.2l-1.1,1.5l-2.6-1c-0.1-0.1-0.3-0.1-0.5-0.1H280c-0.8,0.2-1.6,0.3-2.4,0.4c-2.5,0.3-5.3,0.2-8.1-0.2
		c-1.5-0.2-3-0.4-4.5-0.5L264,375l-0.9-0.7c-1.4-1.1-2.5-2.5-3.4-4.1c-0.9-1.7-1.4-3.5-1.4-5.4c0-1.5,0.3-3,1-4.4
		c0.6-1.2,1.4-2.3,2.3-3.3l1.1-1.1h1.7c1-0.4,2-0.6,2.9-0.6c1.7,0,3.1,0.7,4.2,2c0.6,0.8,1.1,1.7,1.4,2.7c0.1,0.3,0.2,0.7,0.3,1.1
		c0.6,0,1.3,0,2.2-0.1c0.7-0.1,1.4-0.2,2.1-0.3c0.7-0.2,1.4-0.3,2.1-0.6c0.4-0.1,0.7-0.3,1-0.5l0.8-0.6l1-0.1
		c2.4-0.2,4.4-0.7,6.2-1.6c1.7-0.8,3.5-1.7,5.4-2.8c-0.5-0.5-1-1-1.5-1.5c-0.6-0.5-1.4-0.8-2.4-1l-2-0.3l-0.6-1.3
		c-0.2-0.1-0.4-0.2-0.7-0.3c-0.6-0.2-1.2-0.5-1.7-0.8c-0.6-0.3-1.1-0.7-1.6-1.2c-1-0.2-2-0.4-3-0.7c-1.6-0.4-3.1-1.2-4.4-2.2
		c-0.7-0.1-1.4-0.3-2.1-0.6c-0.8-0.3-1.5-0.6-2.2-0.9c-0.6-0.2-1.3-0.5-1.9-0.7c-0.4-0.1-0.8-0.2-1.3-0.2h-2.2l-0.9-1.5
		c-0.1,0-0.2-0.1-0.2-0.1c-0.5-0.2-1-0.4-1.4-0.6c-0.1,0-0.3,0-0.4,0h-3l-0.6-1.7c0,0,0,0-0.1,0c-0.6-0.1-1.2-0.3-1.8-0.6
		c-0.9-0.4-1.8-0.8-2.6-1.3c-0.6-0.4-1.2-0.7-1.8-1c-0.4-0.2-0.8-0.4-1.3-0.5l-0.8-0.2l-0.6-0.5c-0.4-0.3-0.8-0.7-1.2-1.1l-3.6,0.9
		l-0.4-3.7c-0.3-0.2-0.7-0.3-1-0.5l-1.5-0.6l-0.6-1.5c-0.4-0.9-0.8-1.7-1.4-2.4c-0.7-0.9-1.5-1.7-2.4-2.4l-2-1.7l0.5-1.6l-0.4-0.4
		c-0.1,0.8-0.3,1.6-0.4,2.4c-0.4,1.8-0.7,3.7-0.8,5.5l0,0.2c0,0.2,0,0.3,0,0.5c0,0.5,0,1,0,1.5c0,1.7-0.3,3.3-1,4.9
		c-0.3,0.7-0.4,1.4-0.4,2.2c0,0.1,0,0.1,0,0.1l0.6,1.4l-0.5,1.4c-0.2,0.6-0.5,1.4-0.6,2.3c-0.2,1.1-0.4,2.2-0.6,3.3
		c-0.2,1.1-0.3,2.2-0.4,3.3c-0.1,1-0.1,1.9-0.1,2.7c0,0.9,0.1,1.9,0.4,2.8c0.1,0.3,0.1,0.5,0.2,0.8c0.6,0,1.3,0,1.9,0.1
		c1,0.1,2,0.3,2.9,0.6c1.6,0.5,2.8,1.6,3.6,3.1c0.3,0.6,0.5,1.3,0.5,2v0.2c0,1.7-0.6,3.3-1.7,4.7c-0.5,0.6-0.9,1.1-1.2,1.6l-0.6,0.8
		l-0.9,0.4c-1.1,0.6-2.2,0.9-3.3,1c-0.3,0-0.6,0.1-0.9,0.2l-1.1,1l-1.8-0.2c-1-0.1-2-0.5-2.9-1.1c0,0,0,0-0.1,0l-0.3-0.1
		c-0.1,0-0.4-0.1-1.1-0.2c-2.3-0.1-3.7-1.1-4.5-1.9c-1-1.1-1.9-2.4-2.6-4c-0.6-1.4-1-2.9-1.4-4.4c-0.3-1.5-0.5-2.9-0.7-4.4
		c0-0.4-0.1-0.7-0.1-1c-1.4,1.3-3,2.4-4.6,3.5c-0.6,0.4-1.2,0.7-1.7,1c-0.6,0.3-1.2,0.6-1.8,0.9c-0.2,0.1-0.5,0.2-0.7,0.3l-0.1,0.1
		c0,0-0.1,0.1-0.2,0.2c-0.5,0.5-1,1.1-1.5,1.7c-0.7,0.7-1.5,1.3-2.3,1.8c-0.7,0.4-1.4,0.7-2.1,0.8c-0.3,0.4-0.7,0.8-1.1,1.2
		l-0.6,0.6l-0.8,0.3c-1.9,0.7-3.6,1.5-5.1,2.6c-1.9,1.3-3.8,2.5-5.8,3.7c-1.4,0.9-2.8,1.6-4.2,2.2c-0.5,0.2-1.1,0.4-1.7,0.4
		c-0.2,0-0.4,0.1-0.6,0.1l-0.2,0c-1.8,0.4-3.6,0.8-5.4,1.1c-1.9,0.3-3.8,0.4-5.7,0.4c-2.5,0-4.9-0.3-7.2-0.9l-2.8-0.7v-0.8
		c-0.6-0.2-1.3-0.5-1.8-0.8c-0.6-0.3-1.3-0.9-2-1.6l-1-0.2l-0.9-1.2c-0.6-0.8-1.2-1.6-2-2.3c-1.3-1.3-2.2-2.8-2.8-4.5c0,0,0,0,0,0
		h-4.2l2.4-4.9c0-0.2,0-0.4,0-0.6c0-0.2,0-0.4,0-0.6c-0.4-1-0.6-2-0.8-3c-0.2-1.4-0.4-2.8-0.4-4.2c0-1.7,0.1-3.4,0.2-5.1
		c0.1-1.4,0.2-2.9,0.2-4.4v-0.9l0.4-0.8c0.2-0.3,0.3-0.8,0.4-1.3c0.1-0.5,0.2-0.9,0.4-1.3c0-0.2-0.1-0.5-0.1-0.8
		c0-1.3,0.2-2.7,0.7-4.2c0.2-0.7,0.3-1.4,0.3-2.1v-2.2l1.3-0.7c0.1-0.3,0.3-0.6,0.4-0.9c0.1-0.7,0.2-1.4,0.3-2.1
		c0.2-0.8,0.4-1.5,0.5-2.3c0.2-0.7,0.3-1.3,0.4-2c0.1-0.4,0.1-0.9,0.1-1.3l-0.1-1.3l0.6-1c0-0.1,0.1-0.2,0.1-0.3
		c0.2-0.4,0.3-0.8,0.5-1.2c0.1-0.4,0.3-0.7,0.4-1.1c-0.2-0.5-0.2-1.1-0.2-1.7c0-0.7,0.1-1.4,0.4-2.2c0.1-0.4,0.2-0.8,0.3-1.1
		c0.2-0.8,0.3-1.6,0.5-2.4c0.2-0.9,0.3-1.8,0.5-2.7c0.4-2.6,0.8-5.4,1-8.1c0.2-2.8,0.3-5.6,0.4-8.4l0-2.1l1.9-1.1
		c0.8-0.5,1.7-0.9,2.6-1.3c1.7-0.8,3.6-1.1,5.5-0.7c0.5,0.1,1,0.2,1.4,0.4l1.8,0.7l0.5,1.9c0.1,0.6,0.3,0.8,0.3,0.8
		c0.8,0.9,1.5,1.9,2.1,3l0.8,1.5l-0.6,1.6c-0.2,0.5-0.3,1.1-0.4,1.6l-0.2,2.5c-0.1,1-0.2,2-0.4,3c-0.1,0.7-0.3,1.4-0.6,2.1
		c0,0.1,0,0.3,0,0.4v0.8c0,0.9-0.1,1.9-0.3,2.8c-0.1,0.7-0.3,1.4-0.4,2.1c-0.1,0.6-0.2,1.2-0.3,1.8c0,0.3,0,0.6,0,0.8l0.2,1.3
		l-0.7,1.2c-0.1,0.2-0.2,0.4-0.4,0.5l-0.1,0.8c-0.1,0.5-0.2,1-0.2,1.5c-0.1,0.6-0.2,1.2-0.3,1.8l0,0.2c-0.4,1.6-0.8,3.2-1.2,4.8
		c-0.3,1.2-0.5,2.4-0.5,3.7v1.6l-0.6,0.9c-0.2,0.4-0.4,0.9-0.6,1.5c-0.1,0.6-0.2,1.1-0.1,1.5l0.1,0.9l-0.3,0.9
		c-0.6,1.5-1.1,2.9-1.6,4.3c-0.4,1-0.5,2.1-0.5,3.2c0,0.1,0,0.3,0,0.4c0,0.2,0,0.3,0.1,0.4l0.2,1.1l-0.4,1c-0.3,0.7-0.4,1.4-0.5,2.1
		c-0.1,0.9-0.1,1.8-0.1,2.7c0,0.6,0,1.3,0.1,2.2c0.1,0.8,0.2,1.7,0.3,2.6c0.2,0.9,0.4,1.7,0.6,2.5c0.2,0.7,0.4,1.1,0.5,1.4
		c0.8,1.3,1.9,2.3,3.2,3.1c1.3,0.7,2.6,1.2,3.9,1.5c0.8-0.2,1.4-0.4,2-0.4c0.5,0,1.1-0.1,1.9,0c0.8-0.3,1.6-0.6,2.4-0.8
		c0.7-0.2,1.5-0.4,2.2-0.6c0.2-0.1,0.5-0.2,0.8-0.3c0,0,0.1,0,0.1,0c0.3-0.4,0.6-0.7,0.9-1l0.7-0.7l0.9-0.3c0.8-0.2,1.6-0.5,2.3-0.9
		c0.9-0.5,1.8-1,2.7-1.6l2.9-1.7c0.9-0.5,1.7-0.9,2.6-1.3c0-0.1,0.1-0.2,0.1-0.3l2.4-4.7l1.5,1.6l0.2-0.3l1.4-0.2
		c0.2,0,0.4-0.1,0.6-0.2l0.7-1.4l1.8-0.4c0.8-0.2,1.4-0.4,2-0.8c0.9-0.6,1.7-1.2,2.5-1.9c1-0.8,1.9-1.6,2.9-2.4
		c0.8-0.6,1.6-1.2,2.6-1.7l0.8-2.1l2.2-0.3c0.2,0,0.3,0,0.3-0.1c0.6-0.4,1.2-0.9,2-1.3l0.4-0.2c0.1-0.5,0.3-1.1,0.4-1.7
		c0.3-1.7,0.5-3.4,0.7-5.1c0.2-1.8,0.4-3.7,0.6-5.6c0.2-1.7,0.5-3.4,0.9-5.1c0-0.2,0-0.3,0-0.5c0-0.4,0-0.9,0-1.3
		c0-1.2,0.1-2.4,0.4-3.6c0.2-0.7,0.3-1.4,0.3-2.2l0-0.3c-0.1-0.5-0.1-1-0.1-1.5c0-2.4,0.1-4.7,0.4-7c0.2-2,0.3-4.1,0.3-6.1
		c0-1-0.1-1.9-0.2-2.8c-0.2-1.3-0.3-2.6-0.3-3.9c0-0.6,0-1.3,0.1-1.9c0.1-1.1,0.5-2,1-2.9l0.4-0.7l0.7-0.4c1.8-1.2,3.8-1.8,6.1-1.8
		c2,0,3.7,0.6,5.2,1.7l2.5,1.9l-1,2c0,0.3,0.1,0.6,0.1,0.9c0.3,0.6,0.5,1.3,0.6,2c0.2,0.9,0.3,1.9,0.3,2.8c0,0.7,0,1.5-0.1,2.3
		c0,0.5-0.1,1.1-0.1,1.7c0,0.9,0,1.8,0,2.7c0,0.6,0,1.2,0,1.8c1.5-2.5,3.6-4.6,6.3-6.1c0.1-0.1,0.1-0.2,0.2-0.3l0.4-3h2.6
		c0.3-0.3,0.6-0.5,0.9-0.8c0.5-0.4,1-0.7,1.6-0.9c2-1.6,4.1-3,6.4-4.1c2.1-1,4.2-2,6.4-3.1l0.9-1.7l2.3,0c0.4-0.2,0.9-0.4,1.5-0.5
		c0.3-0.2,0.7-0.4,1.1-0.5c0.2-0.1,0.4-0.1,0.5-0.2l0.4-1.3h3.3c0.5,0,0.9-0.1,1.3-0.2c0.7-0.2,1.4-0.5,2.2-0.8l0.7-0.3h1.3
		c0.5,0,1-0.1,1.4-0.3c1.1-0.5,2.4-0.8,3.6-1c0.8-0.2,1.6-0.2,2.4-0.1c0,0,0,0,0,0l0.3-0.5h2.3c0.7,0,1.3,0.1,1.9,0.4
		c0.4-0.1,0.8-0.1,1.2-0.1c1.8,0,3.6,0.2,5.3,0.5c1.5,0.3,3,0.6,4.4,0.8l2.6,0.5l0.3,1.7c0,0,0,0,0,0l2.4,0.9v2.2l0.7,0.9l-0.5,1.9
		c-0.4,1.3-1.1,2.5-2.1,3.3c0,0,0,0,0,0v2.4c0.1,0,0.3-0.1,0.4-0.1c0.4-0.1,0.7-0.2,1.1-0.3l1.1-4.8l4.3,3.4c0.2,0,0.4-0.1,0.6-0.1
		l2.7-3.7l2.3,2.7c1.2-0.6,2.4-0.9,3.6-0.9c0.3,0,0.6,0,0.9,0.1c0.3-0.2,0.7-0.3,1.1-0.4c0.9-0.3,1.7-0.5,2.6-0.8
		c0.7-0.2,1.3-0.4,1.9-0.6c0.1-0.1,0.2-0.1,0.2-0.1l1.4-1.6l2,0.5c0.1,0,0.2,0,0.5,0c0.5,0,1-0.1,1.4-0.2c0.8-0.2,1.7-0.5,2.6-0.7
		l0.3-0.1l1.6-0.2c0.4-0.2,0.9-0.5,1.3-0.7c0.5-0.2,1.1-0.4,1.6-0.6c0.5-0.1,1-0.2,1.5-0.2c1.2-0.6,2.5-1.1,3.8-1.4
		c1.5-0.4,3-0.7,4.4-1c1.3-0.3,2.6-0.6,3.9-0.9c1-0.3,2-0.7,2.9-1.3l0.9-0.6h1.3c0.6,0,1.2-0.1,1.8-0.3c0.7-0.2,1.3-0.6,1.9-1
		l1.6-1.1l1.5,0.5h0.2c1.1,0,2.1-0.2,3.1-0.5c1.7-0.5,3.5-0.8,5.4-0.8c1.4,0,2.6,0.2,3.6,0.7c0.8,0.4,1.5,0.8,2.2,1.4
		c0.3,0.3,0.7,0.5,1,0.8c0,0,0,0,0,0c0,0,0.1,0.1,0.5,0.1l1.7,0.4l0.8,1.6c0.7,1.4,1.1,3,1.1,4.6c0,0.9,0,1.9,0.1,2.8l0.1,2.2
		L383.8,287.9z M414.2,230.1c-1.3,1.3-3,1.9-5,1.9c-0.2,0-0.4,0-0.6,0c-1,0.6-2,1-3.2,1.4c-1.3,0.4-2.5,0.8-3.6,1.2l-0.7,0.2l-0.7,0
		c-1.6-0.1-3.1-0.2-4.6-0.4c-1.1-0.2-2.3-0.2-3.5-0.1l-1.3,0.1l-1.1-0.8c-0.1-0.1-0.1-0.1-0.1-0.1c-0.4-0.1-0.8-0.1-1.2-0.1
		c-0.9,0-1.8-0.2-2.6-0.4c-0.7-0.2-1.3-0.5-1.9-0.9h-2.4c-1,0-2-0.3-3.2-0.9c-0.6-0.3-1.4-0.6-2.1-1c-0.7-0.3-1.5-0.6-2.4-0.9
		c-0.6-0.2-1.1-0.3-1.5-0.3h-1.8l-1-0.9c-0.2-0.2-0.4-0.3-0.7-0.4c-0.7-0.2-1.3-0.4-2-0.5c-0.8-0.2-1.6-0.4-2.4-0.6
		c-1.1-0.3-2.1-0.8-3-1.4c-0.4-0.3-0.9-0.6-1.5-0.9l-1.1,0.1l-1-0.6c-0.8-0.5-1.6-0.9-2.5-1.2c-1-0.4-2-0.7-3-1.1l-0.1,0l-3.2-1.2
		c-0.2-0.1-0.3-0.1-0.5-0.2l-0.7,2.9l-4.7-4.7c-0.1-0.1-0.3-0.2-0.4-0.3c-0.1-0.1-0.3-0.2-0.4-0.2c0,0,0,0,0,0
		c-0.1,1.1-0.2,2.2-0.3,3.3c-0.1,1.4-0.2,2.8-0.3,4.1c-0.1,1.3-0.3,2.5-0.6,3.6c0,0.3,0.1,0.7,0.1,1v1.3c0,0.3,0,0.4,0,0.5l0.6,1.1
		l-0.3,1.3c-0.1,0.4-0.2,0.8-0.2,1.2c-0.1,0.3-0.1,0.5-0.2,0.8c0,0.4,0.1,0.7,0.1,1.1c0,0.6,0,1.1,0,1.8v1.3c0,0.7-0.1,1.5-0.2,2.2
		l-0.4,1.6l-1.4,0.8c-0.6,0.3-1.1,0.6-1.7,0.9c-0.3,0.2-0.7,0.4-1,0.7l-3.5,2.8l-0.8-1.6c-0.3,0.1-0.6,0.1-1,0.1h-1.3l-0.5-0.4
		c-0.2,0-0.5,0-0.7,0.1c-0.4,0.1-0.8,0.2-1.2,0.3l-1.3,0.4l-1.2-0.5c0,0-0.1,0-0.1,0c-0.3,0-0.7-0.1-1-0.2c-0.3,0-0.6,0-0.9,0
		c-1.9,0-3.7-0.5-5.4-1.6c-0.8-0.5-1.6-0.9-2.4-1.1l-1.5-0.5l-0.7-1.4c-0.2-0.3-0.3-0.6-0.6-0.8c-0.4-0.5-0.8-0.9-1.2-1.3
		c-0.5-0.5-1-1.1-1.5-1.7c-0.2-0.2-0.3-0.4-0.5-0.7l-2.8,0.5l0.3-3.3l-1.3-0.2V232c0-0.1,0-0.2,0-0.2c-0.1-0.1-0.1-0.2-0.1-0.2
		c-0.2-0.3-0.5-0.6-0.8-0.9c-0.1-0.1-0.2-0.2-0.3-0.3c-0.2,0-0.3,0-0.5,0c-2,0-3.9,0.4-5.7,1.1c-0.1,0-0.2,0.1-0.4,0.2
		c-0.4,0.2-0.8,0.4-1.2,0.6l-0.7,0.3h-0.4c-0.9,0.2-1.8,0.1-2.7-0.2c-1,0.3-1.9,0.5-2.8,0.6c-2.2,0.4-4.5,0.7-6.8,0.9
		c-1.3,0.1-2.5,0.4-3.7,0.7l0.1,1.1l-1.8,1.3c-0.2,0.6-0.4,1.2-0.6,1.8c-0.2,0.8-0.5,1.6-0.8,2.3c-0.2,0.5-0.4,1-0.6,1.4
		c0,0.1,0,0.1,0,0.2c0,1.5-0.5,3-1.4,4.4c-0.3,0.5-0.6,1-0.7,1.4c-0.2,0.6-0.4,1.1-0.5,1.7c-0.2,1-0.6,2-1.1,2.9
		c-0.6,1.1-1.4,2-2.5,2.7c-1.2,0.8-2.6,1.2-4.4,1.2c-1.5,0-2.9-0.3-4.2-1c-1.2-0.6-2.1-1.5-2.9-2.5c-0.6-0.9-1.2-1.9-1.5-3
		c-0.3-0.9-0.6-1.8-0.7-2.8l-0.3-1.3l0.6-1.2c0.6-1.2,1.2-2.3,1.8-3.2c0.2-0.3,0.4-0.9,0.7-1.9l0.3-1.5l1.2-0.9
		c0.4-0.3,0.7-0.6,0.8-0.9c0.2-0.5,0.3-0.9,0.4-1.5c-1.2-0.2-2.4-0.4-3.5-0.8l-2.5-0.9v-2.7c0-0.2,0-0.4,0-0.7
		c-0.1-0.3-0.3-0.6-0.4-0.8c-0.1,0.1-0.2,0.1-0.3,0.2c0,0-0.1,0.1-0.2,0.4l-0.6,1.4l-1.4,0.6c-0.9,0.4-1.8,0.8-2.7,1.2
		c-0.7,0.3-1.4,0.7-2,1.1l-0.5,1.6l-1.8,0.6c-0.8,0.3-1.4,0.6-1.9,1.1c-0.8,0.9-1.7,1.8-2.6,2.8l-2.7,3.1l-0.7-0.7
		c-0.6,0.5-1.1,1.1-1.7,1.6c-1.1,0.9-2.2,1.9-3.4,2.8c-1.1,0.9-2.2,1.8-3.3,2.8c-1,0.8-1.9,1.7-2.8,2.7l-0.7,0.8l-1,0.3
		c-0.4,0.1-0.8,0.3-1.1,0.4l-0.9,1.9h-1.6l-0.7,1l-1.3,0.3c-1,0.2-2.1,0.5-3.2,0.8c-1.4,0.4-2.9,0.6-4.4,0.6c-1.3,0-2.6-0.3-3.8-0.7
		c-1-0.4-2-0.9-2.9-1.6c-0.9-0.6-1.6-1.3-2.4-1.9c-0.6-0.6-1.2-1.1-1.7-1.7l-0.7-0.7l-0.3-0.9c-0.3-0.9-0.6-1.8-1-2.7
		c-0.7-1.6-1.1-3.2-1.1-4.7c0,0,0-0.1,0-0.1c-0.2-0.3-0.3-0.6-0.4-0.9l-0.1-0.4c-0.1-0.7-0.2-1.5-0.3-2.3c0-0.5-0.1-0.9-0.1-1.3
		l0-0.2c-0.1-1.1-0.3-2.2-0.5-3.4c-0.2-1.2-0.5-2.4-0.7-3.5l-0.6-2.9l0.9-0.5c-0.1-0.5-0.1-1-0.1-1.5c0-1.1,0.2-2.1,0.7-3
		c0-0.3-0.1-0.6-0.1-0.9c0-0.3,0-0.7,0.2-1.5c0.1-0.5,0.2-1.2,0.3-1.8c0.1-0.6,0.2-1.1,0.3-1.7c0.1-0.5,0.2-0.9,0.2-1.2
		c0.3-2.2,0.6-4.5,0.9-6.7c0.2-1.4,0.4-2.8,0.6-4.2c-1-0.5-1.8-1.1-2.4-1.9c-0.5-0.7-0.9-1.5-1.1-2.4c-0.1,0-0.3,0-0.4,0
		c-0.5,0.1-1,0.2-1.4,0.3l-1.1,2.4l-2.9-0.6c-0.1,0-0.3,0-0.4-0.1c-0.2,0-0.3,0-0.5,0c-1.1,0-2.1,0.2-3.1,0.6
		c-0.5,0.2-1,0.4-1.5,0.6c0,0.2,0.1,0.5,0.1,0.7c0.1,0.3,0.1,0.6,0.2,0.9l1.2,0.8v2c0,1-0.3,2-0.8,2.8c-0.3,0.4-0.6,0.8-0.9,1.1
		c0,0.2,0,0.3,0,0.5c0,1.2-0.4,2.2-1,3.1c-0.1,0.6-0.2,1.2-0.4,1.7c0,0,0,0,0,0.1l0.2,1.6l-1.1,1.2c-0.7,0.8-1.3,1.6-1.7,2.4
		c-0.4,0.7-0.7,1.5-1,2.4l-0.3,1l-0.7,0.7c-1.9,1.9-3.9,3.8-5.8,5.8c-2,2-4.1,3.9-6.2,5.7c-2.1,1.8-4.4,3.6-6.6,5.3
		c-2.3,1.7-4.8,3.3-7.3,4.6l-0.8,0.4h-1.5c-0.5,0-0.8,0.1-0.8,0.1c-1,0.6-2.1,1-3.4,1.4l-1,0.3l-1-0.3c-0.3-0.1-0.9-0.2-1.8-0.2
		c-0.5,0-1,0-1.6,0.1c-2,0.2-4,0.1-5.7-0.4c-0.8-0.2-1.6-0.5-2.3-0.8c-0.6-0.3-1.3-0.5-1.9-0.7c-0.4-0.1-0.8-0.3-1.3-0.3l-1.3-0.2
		l-0.9-0.9c-3.5-3.5-6.3-7.6-8.3-12.3c-2-4.7-3.1-9.6-3.1-14.5c0-2.4,0.3-4.8,1-7.1c0.5-1.6,0.7-3.3,0.7-4.9V208l0.4-0.8
		c0.8-1.7,1.6-3.5,2.2-5.3c0.7-2,1.4-3.9,2.1-5.9c0.7-2,1.6-4,2.4-6c0.8-1.8,1.8-3.6,2.9-5.3c0.3-1.4,0.8-2.7,1.5-3.8
		c0.4-0.7,0.9-1.5,1.4-2.4c0.1-1.3,0.5-2.6,1.1-3.7c0.3-0.5,0.4-1.1,0.5-1.8l0.1-1.4l1.1-1c0.5-0.5,0.9-1,1.2-1.6
		c0.5-0.9,0.9-1.8,1.4-2.8c0.5-1.2,1.1-2.3,1.8-3.4c0.6-0.9,1.3-1.8,2.1-2.5c0.2-0.9,0.5-1.8,1.1-2.5l0.2-0.2l1.5-1.6
		c0.4-0.5,0.8-1.1,1.1-1.6c0.5-0.9,1.2-1.7,1.8-2.4l0.1-0.1c0.4-0.4,0.7-0.7,1.1-1c0.2-0.9,0.6-1.8,1.3-2.5c0.4-0.4,0.9-0.7,1.4-1
		c0.1,0,0.1,0,0.1-0.1c0.4-0.3,0.8-0.6,1.1-0.9c0.8-0.8,1.7-1.3,2.8-1.7c0.4-0.3,0.8-0.7,1.2-1c0.7-0.7,1.4-1.3,2.1-1.8
		c0.9-0.7,1.9-1.2,2.9-1.6c1.2-0.5,2.5-0.7,4.1-0.7c0.4,0,0.7,0,1.1,0.1c0.1,0,0.1,0,0.2,0h1.5l1.1,1c2.7,2.5,4.4,5.6,5.1,9.2
		l0.3,1.7l-1.1,1.3c-0.3,0.4-0.6,0.9-0.8,1.4c-0.4,0.9-0.8,1.8-1.2,2.7l-0.7,1.4l-1.4,0.5c-0.5,0.2-1,0.4-1.4,0.8
		c-0.7,0.6-1.5,1.1-2.1,1.7c-0.9,0.7-1.8,1.4-2.8,2c-0.9,0.5-1.9,0.9-3,1.1c-0.3,0.3-0.6,0.6-1,0.9c-0.9,0.8-1.8,1.6-2.7,2.4
		c-0.9,0.8-1.8,1.6-2.5,2.4c-0.6,0.6-0.9,0.9-1,1c-0.1,0.1-0.1,0.2-0.2,0.3c-0.1,0.1-0.1,0.3-0.2,0.4l-0.1,0.3l-2.1,3.6
		c-1.1,1.9-2.3,3.9-3.5,5.8c-1.1,1.7-2,3.5-2.8,5.3c-0.4,0.8-0.6,1.6-0.8,2.3c-0.2,0.9-0.5,1.8-0.7,2.8l-0.1,0.3
		c-0.2,0.5-0.4,0.9-0.6,1.4c-0.1,0.2-0.2,0.4-0.3,0.6l-0.2,0.4c-0.5,0.9-0.9,1.8-1.2,2.6c-0.1,0.4-0.3,0.8-0.3,1.3l0.2-0.1l1,0.2
		c0.4,0.1,0.9,0.1,1.3,0.2c2.2,0.2,4.4,0,6.5-0.6c1.9-0.5,3.9-1.1,5.8-1.7c1.9-0.6,3.9-1.1,5.8-1.6c1.8-0.4,3.7-0.9,5.5-1.5l0.1,0
		c1.7-0.4,3.4-0.9,5-1.5c1.7-0.6,3.5-1,5.4-1.2c1.5-0.9,3.2-1.5,5.1-1.8c1.7-0.3,3.2-0.6,4.6-0.9c2.3-0.6,4.7-1.1,6.9-1.7
		c2.4-0.6,4.8-1.2,7.3-1.6c1.5-0.3,3-0.7,4.4-1.1c0.1-0.5,0.1-1,0.2-1.5l0.6-5.7c0-0.3,0.1-0.5,0.1-0.8c-0.6,0.1-1.2,0.1-1.9,0.1
		h-1.5l-1-0.8c-3-2.4-3.7-5.2-3.7-7.2c0-1.5,0.3-3,0.9-4.4l0.6-1.5l1.5-0.6c0.5-0.2,0.9-0.4,1.2-0.7c0.7-0.5,1.3-1,2-1.6
		c0.8-0.6,1.7-1.2,2.6-1.7c0.3-0.2,0.5-0.3,0.8-0.4c0.1-0.8,0.3-1.7,0.6-2.5c0.3-1.1,0.5-2.3,0.5-3.4c0-0.2,0-0.4,0-0.6l-0.6-1.9
		l1.2-1.6c0-0.1,0.1-0.1,0.1-0.1c0-0.2,0.1-0.4,0.1-0.7c0-0.4,0-0.9-0.1-1.3c-0.1-0.5-0.1-1-0.2-1.5l-0.5-2.9l2.7-1.2
		c0.1,0,0.1-0.1,0.2-0.1l0.7-0.6c0.6-0.5,1.2-0.9,1.9-1.2c0.8-0.4,1.8-0.5,3-0.5c1.6,0,3.1,0.4,4.3,1.1c1.1,0.6,2.1,1.4,2.9,2.4
		c0.7,0.8,1.3,1.8,1.8,2.8c0.4,0.8,0.8,1.6,1.2,2.4l0.5,1.1l-0.2,1.2c0,0.2-0.1,0.4-0.1,0.5h0.2c0.1,0,0.3,0,0.4,0
		c0.4-0.2,0.8-0.4,1.2-0.6c0.7-0.3,1.5-0.6,2.3-0.9c0.7-0.2,1.3-0.5,2-0.7c0.4-0.2,0.8-0.4,1.1-0.6l1.9-1.4l1.6,0.8
		c0.4-0.2,0.7-0.3,1-0.5c0.6-0.3,1.2-0.6,1.8-0.8c0,0,0,0,0,0l-0.1-0.5l3.6-0.9c1.4-0.4,2.6-0.8,3.6-1.2c1.1-0.5,2.2-1,3.5-1.6
		c0.1-0.1,0.3-0.2,0.5-0.3c0,0,0,0,0,0l1.5-1.9l2.2,0.6c0.4-0.2,0.7-0.3,1.1-0.5c0.6-0.3,1.1-0.6,1.7-0.8c1-0.4,1.9-0.6,2.9-0.6
		c0.1,0,0.1,0,0.2,0c0.2-0.1,0.4-0.2,0.5-0.3v-1.2l3.4-0.4c1.5-0.2,3-0.5,4.3-1c1.3-0.5,2.6-1.2,3.8-2.1l1.3-0.9l1.6,0.3
		c0.6,0.1,1.2,0.2,1.8,0.4c0.3,0.1,0.5,0.1,0.8,0.1h2.2l1.1,2c0.1,0.1,0.2,0.3,0.2,0.4l2-0.1l0.7,3.2c0.1,0.4,0.1,0.8,0.2,1.2
		c0,0.4,0.1,0.8,0.1,1.2c0,0.3,0,0.6,0,0.9l0.8-0.3c0.3-0.1,0.5-0.2,0.5-0.3c1-0.7,2.1-1,3.5-1c0.3,0,0.6,0,0.9,0.1h0.9l1,0.6
		c0.8,0.5,1.4,1.2,1.8,2l2.4-0.4l0.5,2.9l1.3,0.1l0.9,2.4c0.2,0.5,0.4,1.1,0.7,1.6c0.1,0.2,0.2,0.2,0.2,0.3l2.4,1.5l-0.6,2.5
		c0,0,0,0,0,0.1c0,0.1,0,0.2,0.1,0.4c0.2,0.4,0.4,0.7,0.7,1l1,1.1v1.6c0,0.3,0,0.7-0.1,1c0.1,0.3,0.2,0.6,0.3,0.9
		c0.2,0.8,0.4,1.6,0.6,2.5c0,0.2,0.1,0.4,0.1,0.6c0.4-0.2,0.7-0.4,1-0.6l1.5-0.9l1.3,0.4c0.2-0.1,0.5-0.2,0.8-0.4
		c0.5-0.3,1.1-0.5,1.6-0.7c0.6-0.2,1.2-0.3,1.8-0.4c1.7-0.9,3.5-1.6,5.3-2.2c1.6-0.5,3.2-1.2,4.7-2.1l0.9-0.6h1.1c0.2,0,0.4,0,0.6,0
		c0.3-0.2,0.7-0.3,1-0.5c0.6-0.2,1.3-0.4,1.9-0.6c0,0,0,0,0,0l1.3-4.4l3.6,2.9c0.1,0,0.2-0.1,0.3-0.1c1.2-0.6,2.5-0.9,3.9-0.9
		c0,0,0,0,0,0l0.7-0.6l0.9-0.2c3.2-0.6,6.3-1.1,9.4-1.6c3-0.4,6-0.7,9.1-0.7c1.5-0.6,3.1-0.6,4.6-0.1c0.6-0.1,1.2-0.1,1.7-0.1
		c1-0.1,1.9-0.1,2.8-0.1c2.1,0,4.4,0.1,6.6,0.4c2.3,0.3,4.5,0.7,6.7,1.3c2.3,0.6,4.5,1.4,6.6,2.4c2.1,1,4.1,2.2,5.9,3.6l0.9,0.7
		l0.4,1.1c0.1,0.2,0.1,0.4,0.2,0.6l1.6,1v2.1c0,0.1,0,0.2,0,0.3c0.6,1.1,0.9,2.3,0.9,3.6c0,1.1-0.2,2.2-0.5,3.3
		c-0.1,0.3-0.1,0.5-0.1,0.7l0.1,1.3l-0.8,1.1c-0.5,0.7-0.9,1.4-1.3,2c0,0-0.2,0.3-0.2,1l-0.1,1.3l-1,1c-0.7,0.7-1.4,1.5-2,2.4
		c-0.7,1.1-1.5,2.3-2.3,3.3c-0.9,1.3-1.9,2.4-3,3.4c-0.8,0.8-1.8,1.5-2.8,2c-0.1,0.3-0.3,0.6-0.5,0.9l-1.1,1.9h-2
		c-0.2,0.2-0.4,0.3-0.6,0.4l-0.4,0.2v5.2l-4.1-2c-0.5,0.4-0.9,0.7-1.2,0.9l-0.1,0.1c-1,0.7-2,1.3-3,1.9c-0.4,0.2-0.8,0.6-1.1,1.1
		l-0.6,0.9l-1,0.4c-1.9,0.8-3.6,1.7-5.3,2.8c-1.9,1.2-3.9,2.1-6,2.8c-0.3,0.3-0.7,0.6-1,0.8c0.6,0.5,1.3,0.9,2.1,1.2
		c1.2,0.5,2.5,1,3.8,1.4c1.5,0.5,2.9,1,4.4,1.5c1.3,0.5,2.5,1,3.6,1.7h2.2l1.1,0.9c0.8,0.7,1.7,1.2,2.8,1.6c1.6,0.5,3.1,0.9,4.5,1.3
		l0.9,0.2l0.7,0.6c0.2,0.2,0.6,0.3,0.9,0.4c0.6,0.2,1.1,0.3,1.7,0.3h0.2l4.6-1.6v2.9c1.1,0.1,2.2,0.4,3.3,0.9c0.5,0.2,1,0.3,1.5,0.3
		l1-0.4l1.3,0.4c0.7,0.2,1.3,0.6,1.8,1c1.5,0,3,0.1,4.4,0.5c0.7,0.2,1.4,0.4,2.1,0.7c1.3-0.5,2.5-0.9,3.7-1.3c1.9-0.6,4-0.8,6.1-0.8
		h3.8v3.8c0.4,0.6,0.7,1.3,1,2l0.4,0.9l-0.1,1C416.3,227.2,415.5,228.9,414.2,230.1z"/>
	<path fill="#D05A3D" d="M329.6,165.7h-2.1c-0.8,0-1.5,0.1-2.2,0.4c-1.1,0.5-2.3,1-3.5,1.5c-0.8,0.4-1.6,0.6-2.5,0.8
		c-0.3,0-0.5,0.1-0.8,0.2c-0.5,0.4-1.1,0.7-1.6,1l-0.1,0c-0.4,0.5-0.8,1-1.4,1.3c-0.9,0.7-2.1,1-3.4,0.9c0,0,0,0,0,0
		c-1,0.7-2.1,1.3-3.1,1.9c-0.5,0.2-0.9,0.5-1.4,0.7c0.1,0.1,0.2,0.2,0.3,0.3l2.4,3.2l-2.1,1.4c0,0.2,0.1,0.4,0.1,0.6l0.6,0.5v2.2
		c0,0.5-0.1,0.9-0.2,1.4c0.3,1.6,0.6,3.2,0.8,4.8c0.2,1.8,0.5,3.5,0.7,5.3c0.2,1.7,0.5,3.5,0.8,5.2c0.3,1.5,0.6,2.9,1.1,4.3
		c0.2,0.5,0.4,1.1,0.4,1.7c0,0.2,0,0.5-0.1,0.7l0.7,0.7l-0.5,1.9c0,0,0,0.1,0,0.2c0,0.3,0.1,0.6,0.2,0.8c0.2,0.6,0.5,1.2,0.8,1.9
		c0.4,0.8,0.8,1.7,1.1,2.6c0.2,0.6,0.4,1.3,0.4,1.9c0.2,0.1,0.4,0.2,0.7,0.4c0.8,0.4,1.5,0.8,2.1,1.4c1.1,0.9,1.8,2.1,2.2,3.5
		l0.6,2.2l-1.5,1.3c0,0.1-0.1,0.2-0.1,0.3c0,0.1,0.1,0.1,0.1,0.2c0.4,0.7,0.9,1.4,1.4,2l1.6,2.1c0.3,0.4,0.7,0.9,1,1.4
		c0.1,0.1,0.3,0.1,0.4,0.2l0.6-0.1c0,0,0-0.1,0-0.1c0.2-1.1,0.5-2.2,0.9-3.3c0.5-1.2,0.8-2.5,1-3.8c0.2-1.5,0.4-3.1,0.5-4.7
		c0.1-1.6,0.2-3.2,0.2-4.9c0-1.4,0.1-2.7,0.2-4c0,0-0.1-0.1-0.1-0.1c-1.2-1.2-1.8-2.9-1.8-5c0-2.6,1.2-4.2,2.2-5.1
		c0.1-0.1,0.3-0.3,0.4-0.4c0.1-0.2,0.2-0.5,0.3-0.7l0.8-7c0.1-0.7,0.2-1.4,0.3-2.2c0.1-0.5,0.2-1,0.2-1.5c0.1-1,0.1-2.1,0.1-3.1
		c0-1.2,0.1-2.5,0.2-3.7c0.3-2.5,0.5-5,0.7-7.5c0.2-2.3,0.3-4.7,0.3-7c0-0.6,0-1.2,0-1.8L329.6,165.7z"/>
	<path fill="#D05A3D" d="M358.6,183.5c0.2-0.1,0.3-0.2,0.4-0.4l1.1-1.6h1.4c0.2-0.1,0.5-0.3,0.7-0.4c2.4-2,4.8-4,7.2-5.8
		c2.2-1.6,4.3-3.4,6.4-5.2c0.3-0.7,0.7-1.4,1.2-2.1c0.5-0.7,0.9-1.3,1.3-2c0.4-0.6,0.7-1.2,1-1.8c0-0.1,0.1-0.2,0.1-0.3
		c-0.2-0.2-0.4-0.3-0.6-0.4c-0.4-0.2-0.7-0.5-1.1-0.8c-1.1-0.4-2.2-0.7-3.2-1.2c-1.1-0.4-2.3-0.8-3.4-1.1c-0.6-0.1-1.2-0.3-1.8-0.4
		c-0.4-0.1-0.9-0.1-1.3-0.1h-2l-0.3,0c-0.4-0.1-0.8-0.1-1.2-0.2c-0.2-0.1-0.5-0.1-0.7-0.1c-0.6-0.1-1.2-0.2-1.8-0.2
		c-1.8-0.1-3.7-0.1-5.5,0.1l-4,0.3c-0.6,0.1-1.3,0.1-2.1,0.1c-0.4,0-0.7,0-0.9,0.1c0,0-0.1,0-0.5,0.2c-0.5,0.2-1,0.4-1.6,0.6
		c-0.1,0-0.1,0-0.2,0.1c0,0.7,0,1.4-0.1,2c-0.1,0.9-0.2,1.8-0.4,2.7c-0.1,0.5-0.2,1-0.4,1.4c0,0.1-0.1,0.2-0.1,0.3l0,0.2
		c0,0.1-0.1,0.4-0.1,0.7l0,1.8c-0.1,1.1-0.2,2.2-0.2,3.3c-0.1,1.2-0.1,2.4-0.2,3.6c-0.3,3.4-0.6,6.8-1,10.1
		c-0.1,1.4-0.3,2.8-0.4,4.3c1.2-0.6,2.3-1.2,3.4-1.8c1.5-0.9,3-1.7,4.5-2.5c1.4-0.8,2.8-1.4,4.3-2
		C357.3,184.3,357.9,183.9,358.6,183.5z"/>
</g>
</svg>
